<svg width="316" height="298" xmlns="http://www.w3.org/2000/svg" xmlns:xlink="http://www.w3.org/1999/xlink" overflow="hidden"><defs><filter id="fx0" x="-10%" y="-10%" width="120%" height="120%" filterUnits="userSpaceOnUse" primitiveUnits="userSpaceOnUse"><feComponentTransfer color-interpolation-filters="sRGB"><feFuncR type="discrete" tableValues="0 0"/><feFuncG type="discrete" tableValues="0 0"/><feFuncB type="discrete" tableValues="0 0"/><feFuncA type="linear" slope="0.4" intercept="0"/></feComponentTransfer><feGaussianBlur stdDeviation="0.723123 0.723123"/></filter><clipPath id="clip1"><rect x="661" y="265" width="316" height="298"/></clipPath><clipPath id="clip2"><rect x="26" y="24" width="175" height="31"/></clipPath><clipPath id="clip3"><rect x="0" y="0" width="227" height="87"/></clipPath></defs><g clip-path="url(#clip1)" transform="translate(-661 -265)"><path d="M80.1242 14.3898C98.6663 33.8003 98.9103 65.5308 80.6694 85.2617 71.0686 95.6468 57.6964 101.072 44.0353 100.126" stroke="#FFFFFF" stroke-width="4" stroke-miterlimit="8" fill="none" fill-rule="evenodd" transform="matrix(0.0506246 0.998718 0.998718 -0.0506246 802.618 277.629)"/><path d="M875 335 892.24 344.971" stroke="#FFFFFF" stroke-width="2" stroke-miterlimit="8" fill="none" fill-rule="evenodd"/><path d="M862 341 882.552 352.886" stroke="#FFFFFF" stroke-width="2" stroke-miterlimit="8" fill="none" fill-rule="evenodd"/><path d="M844 345 869.922 359.992" stroke="#FFFFFF" stroke-width="2" stroke-miterlimit="8" fill="none" fill-rule="evenodd"/><path d="M843 357 851.62 361.986" stroke="#FFFFFF" stroke-width="2" stroke-miterlimit="8" fill="none" fill-rule="evenodd"/><path d="M85.4087 24.8837C101.799 53.2634 98.2756 94.4538 77.5384 116.885 71.1852 123.757 63.6618 128.311 55.6725 130.119" stroke="#FFFFFF" stroke-width="4" stroke-miterlimit="8" fill="none" fill-rule="evenodd" transform="matrix(-0.0506246 -0.998718 -0.998718 0.0506246 872.733 552.598)"/><path d="M778.532 495.133 756 485" stroke="#FFFFFF" stroke-width="2" stroke-miterlimit="8" fill="none" fill-rule="evenodd"/><path d="M794.86 489.079 768 477" stroke="#FFFFFF" stroke-width="2" stroke-miterlimit="8" fill="none" fill-rule="evenodd"/><path d="M818.879 485.236 785 470" stroke="#FFFFFF" stroke-width="2" stroke-miterlimit="8" fill="none" fill-rule="evenodd"/><path d="M820.266 473.066 809 468" stroke="#FFFFFF" stroke-width="2" stroke-miterlimit="8" fill="none" fill-rule="evenodd"/><path d="M697.758 419.149 779.654 452.675 778.138 456.377 696.242 422.851ZM779.318 448.215 788.151 458.314 774.772 459.321Z" fill="#FFFFFF"/><path d="M1.39357-1.43456 24.3465 20.8626 21.5594 23.7317-1.39357 1.43456ZM32.9539 29.224 35.823 32.0111 33.0359 34.8803 30.1667 32.0931ZM44.4303 40.3726 47.2995 43.1597 44.5123 46.0288 41.6432 43.2417ZM55.9068 51.5211 78.8598 73.8183 76.0726 76.6874 53.1197 54.3903ZM87.4671 82.1797 88.4336 83.1186 85.6465 85.9877 84.68 85.0488ZM89.7863 78.8559 94.2129 91.521 81.4248 87.4633Z" fill="#FFFFFF" transform="matrix(1 0 0 -1 785 457.521)"/><path d="M880.018 364.279 893.789 372.424 891.753 375.867 877.982 367.721ZM904.118 378.534 907.561 380.57 905.524 384.013 902.081 381.977ZM917.889 386.68 931.66 394.826 929.624 398.268 915.853 390.122ZM937.796 393.807 945.07 405.081 931.687 404.136Z" fill="#FFFFFF"/><g clip-path="url(#clip2)" filter="url(#fx0)" transform="translate(660 263)"><g clip-path="url(#clip3)"><path d="M15.1216-17.2354C15.1216-18.4759 14.7091-19.3853 13.884-19.9634 13.059-20.5415 11.8034-20.8306 10.1172-20.8306L7.55176-20.8306 7.55176-13.333 10.1533-13.333C11.7793-13.333 13.0138-13.6672 13.8569-14.3357 14.7-15.0041 15.1216-15.9707 15.1216-17.2354ZM16.585-6.12451C16.585-7.49756 16.064-8.53638 15.0222-9.24097 13.9804-9.94556 12.52-10.2979 10.6411-10.2979L7.55176-10.2979 7.55176-1.73438 10.894-1.73438C12.8091-1.73437 14.2363-2.11076 15.1758-2.86353 16.1152-3.61629 16.585-4.70329 16.585-6.12451ZM21.0112-5.70898C21.0112-3.43262 20.1681-1.67114 18.4819-0.424561 16.7957 0.822021 14.4411 1.44531 11.418 1.44531L3.16162 1.44531 3.16162-24.0103 10.334-24.0103C16.4645-24.0103 19.5298-21.9447 19.5298-17.8135 19.5298-16.2959 19.1082-15.0252 18.2651-14.0015 17.422-12.9777 16.2297-12.2912 14.688-11.9419 16.6753-11.7371 18.226-11.0837 19.3401-9.98169 20.4542-8.87964 21.0112-7.4554 21.0112-5.70898ZM43.0415-7.85889C43.0415-4.83577 42.2014-2.46908 40.5212-0.758789 38.8411 0.951497 36.4834 1.80664 33.4482 1.80664 30.5094 1.80664 28.209 0.939453 26.5469-0.794922 24.8848-2.5293 24.0537-4.88395 24.0537-7.85889 24.0537-10.882 24.8878-13.2367 26.5559-14.9229 28.224-16.609 30.5576-17.4521 33.5566-17.4521 36.652-17.4521 39.0067-16.6301 40.6206-14.9861 42.2345-13.342 43.0415-10.9663 43.0415-7.85889ZM38.6875-7.85889C38.6875-12.2069 37.0073-14.3809 33.647-14.3809 30.1541-14.3809 28.4077-12.2069 28.4077-7.85889 28.4077-5.72705 28.8353-4.09505 29.6904-2.96289 30.5456-1.83073 31.7861-1.26465 33.4121-1.26465 36.929-1.26465 38.6875-3.46273 38.6875-7.85889ZM51.4818-17.0728 51.4818-6.7207C51.4818-4.8418 51.7769-3.49284 52.367-2.67383 52.9572-1.85482 53.8786-1.44531 55.1312-1.44531 56.4801-1.44531 57.5521-1.96021 58.347-2.98999 59.1419-4.01978 59.5394-5.45605 59.5394-7.29883L59.5394-17.0728 63.6947-17.0728 63.6947-2.83643C63.6947-1.39111 63.7489 0.0361328 63.8573 1.44531L59.9007 1.44531C59.7682-0.385417 59.702-1.5778 59.702-2.13184L59.6297-2.13184C58.9071-0.710612 58.073 0.301107 57.1275 0.90332 56.182 1.50553 54.9686 1.80664 53.4871 1.80664 51.4396 1.80664 49.901 1.19539 48.8712-0.0270996 47.8414-1.24959 47.3265-3.12549 47.3265-5.65479L47.3265-17.0728ZM81.5895 1.44531 81.5895-8.90674C81.5895-10.7856 81.2974-12.1346 80.7133-12.9536 80.1292-13.7726 79.2048-14.1821 77.9401-14.1821 76.5791-14.1821 75.5102-13.6582 74.7333-12.6104 73.9565-11.5625 73.568-10.1413 73.568-8.34668L73.568 1.44531 69.4128 1.44531 69.4128-12.8091C69.4128-14.2423 69.3586-15.6636 69.2502-17.0728L73.2067-17.0728C73.3392-15.2661 73.4054-14.0737 73.4054-13.4956L73.4777-13.4956C74.1883-14.8807 75.0134-15.8864 75.9528-16.5127 76.8923-17.139 78.1027-17.4521 79.5842-17.4521 81.6437-17.4521 83.1884-16.8439 84.2182-15.6274 85.248-14.411 85.7629-12.5321 85.7629-9.99072L85.7629 1.44531ZM98.0029 1.80664C95.4616 1.80664 93.5014 0.975586 92.1223-0.686523 90.7432-2.34863 90.0537-4.69124 90.0537-7.71436 90.0537-10.8218 90.7583-13.2216 92.1675-14.9138 93.5767-16.606 95.57-17.4521 98.1475-17.4521 102.351-17.4521 104.76-15.5311 105.374-11.689L101.219-11.3457C101.086-12.3695 100.746-13.1373 100.198-13.6492 99.65-14.1611 98.9785-14.417 98.1836-14.417 96.8226-14.417 95.8259-13.881 95.1936-12.8091 94.5613-11.7371 94.2451-10.0991 94.2451-7.89502 94.2451-5.65479 94.5733-3.98063 95.2297-2.87256 95.8862-1.76449 96.8226-1.21045 98.0391-1.21045 99.8578-1.21045 100.942-2.34863 101.291-4.625L105.338-4.19141C104.688-0.192708 102.243 1.80664 98.0029 1.80664ZM111.926-7.02783C111.986-5.13688 112.405-3.68254 113.181-2.66479 113.958-1.64705 115.021-1.13818 116.37-1.13818 117.285-1.13818 118.101-1.36702 118.818-1.82471 119.535-2.28239 120.182-3.05322 120.76-4.13721L124.03-2.56543C123.32-1.42122 122.609-0.554036 121.898 0.0361328 121.188 0.626302 120.36 1.06893 119.414 1.36401 118.469 1.6591 117.346 1.80664 116.045 1.80664 113.335 1.80664 111.245 0.954508 109.776-0.749756 108.306-2.45402 107.572-4.84782 107.572-7.93115 107.572-11.0386 108.343-13.4023 109.884-15.0222 111.426-16.6422 113.528-17.4521 116.189-17.4521 118.827-17.4521 120.845-16.588 122.242-14.8596 123.639-13.1313 124.337-10.6893 124.337-7.53369L124.337-7.02783ZM116.045-14.5796C114.828-14.5796 113.859-14.146 113.136-13.2788 112.414-12.4116 112.022-11.2132 111.962-9.68359L120.02-9.68359C119.899-11.3216 119.526-12.5471 118.899-13.3601 118.273-14.1731 117.322-14.5796 116.045-14.5796ZM129.356-13.8931 129.356-17.2173 147.983-17.2173 147.983-13.8931ZM129.356-4.28174 129.356-7.62402 147.983-7.62402 147.983-4.28174ZM166.756 1.44531 166.756-8.90674C166.756-10.7856 166.464-12.1346 165.88-12.9536 165.296-13.7726 164.371-14.1821 163.107-14.1821 161.746-14.1821 160.677-13.6582 159.9-12.6104 159.123-11.5625 158.735-10.1413 158.735-8.34668L158.735 1.44531 154.579 1.44531 154.579-12.8091C154.579-14.2423 154.525-15.6636 154.417-17.0728L158.373-17.0728C158.506-15.2661 158.572-14.0737 158.572-13.4956L158.644-13.4956C159.355-14.8807 160.18-15.8864 161.119-16.5127 162.059-17.139 163.269-17.4521 164.751-17.4521 166.81-17.4521 168.355-16.8439 169.385-15.6274 170.415-14.411 170.93-12.5321 170.93-9.99072L170.93 1.44531Z" fill="#FFFFFF" transform="translate(26.4902 51)"/></g></g><text fill="#FFFFFF" font-family="DengXian,DengXian_MSFontService,sans-serif" font-weight="700" font-size="37" transform="translate(685.651 313)">Bounce=n</text></g></svg>