<svg width="310" height="299" xmlns="http://www.w3.org/2000/svg" xmlns:xlink="http://www.w3.org/1999/xlink" overflow="hidden"><defs><filter id="fx0" x="-10%" y="-10%" width="120%" height="120%" filterUnits="userSpaceOnUse" primitiveUnits="userSpaceOnUse"><feComponentTransfer color-interpolation-filters="sRGB"><feFuncR type="discrete" tableValues="0 0"/><feFuncG type="discrete" tableValues="0 0"/><feFuncB type="discrete" tableValues="0 0"/><feFuncA type="linear" slope="0.4" intercept="0"/></feComponentTransfer><feGaussianBlur stdDeviation="0.723123 0.723123"/></filter><clipPath id="clip1"><rect x="139" y="268" width="310" height="299"/></clipPath><clipPath id="clip2"><rect x="153" y="362" width="96" height="96"/></clipPath><clipPath id="clip3"><rect x="153" y="362" width="96" height="96"/></clipPath><clipPath id="clip4"><rect x="153" y="362" width="96" height="96"/></clipPath><clipPath id="clip5"><rect x="27" y="22" width="138" height="32"/></clipPath><clipPath id="clip6"><rect x="0" y="0" width="190" height="87"/></clipPath><clipPath id="clip7"><rect x="344" y="322" width="96" height="96"/></clipPath><clipPath id="clip8"><rect x="344" y="322" width="96" height="96"/></clipPath><clipPath id="clip9"><rect x="344" y="322" width="96" height="96"/></clipPath><clipPath id="clip10"><rect x="166" y="455" width="97" height="96"/></clipPath><clipPath id="clip11"><rect x="166" y="455" width="97" height="96"/></clipPath><clipPath id="clip12"><rect x="166" y="455" width="97" height="96"/></clipPath><clipPath id="clip13"><rect x="348" y="399" width="96" height="96"/></clipPath><clipPath id="clip14"><rect x="348" y="399" width="96" height="96"/></clipPath><clipPath id="clip15"><rect x="348" y="399" width="96" height="96"/></clipPath><clipPath id="clip16"><rect x="255" y="370" width="87" height="62"/></clipPath><clipPath id="clip17"><rect x="255" y="370" width="87" height="62"/></clipPath><clipPath id="clip18"><rect x="255" y="370" width="87" height="62"/></clipPath><clipPath id="clip19"><rect x="255" y="409" width="87" height="62"/></clipPath><clipPath id="clip20"><rect x="255" y="409" width="87" height="62"/></clipPath><clipPath id="clip21"><rect x="255" y="409" width="87" height="62"/></clipPath><clipPath id="clip22"><rect x="255" y="447" width="87" height="62"/></clipPath><clipPath id="clip23"><rect x="255" y="447" width="87" height="62"/></clipPath><clipPath id="clip24"><rect x="255" y="447" width="87" height="62"/></clipPath><clipPath id="clip25"><rect x="302" y="346" width="33" height="32"/></clipPath><clipPath id="clip26"><rect x="302" y="346" width="33" height="32"/></clipPath><clipPath id="clip27"><rect x="302" y="346" width="33" height="32"/></clipPath><clipPath id="clip28"><rect x="262" y="511" width="33" height="32"/></clipPath><clipPath id="clip29"><rect x="262" y="511" width="33" height="32"/></clipPath><clipPath id="clip30"><rect x="262" y="511" width="33" height="32"/></clipPath></defs><g clip-path="url(#clip1)" transform="translate(-139 -268)"><g clip-path="url(#clip2)"><g clip-path="url(#clip3)"><g clip-path="url(#clip4)"><path d="M225 433.6 211.31 411.78C211.065 411.38 210.629 411.137 210.16 411.14 209.689 411.14 209.251 411.382 209 411.78L205 418.2 213.58 432.08C214.306 433.178 214.462 434.557 214 435.79L223.7 435.79C224.494 435.83 225.17 435.218 225.21 434.424 225.225 434.134 225.151 433.847 225 433.6Z" fill="#595959"/><path d="M210.1 433.73 188.35 398.34C188.071 397.979 187.636 397.775 187.18 397.79L187 397.79 186.82 397.79C186.364 397.775 185.929 397.979 185.65 398.34L163.9 433.73C163.592 434.161 163.549 434.728 163.79 435.2 164.033 435.628 164.514 435.862 165 435.79L209 435.79C209.486 435.862 209.967 435.628 210.21 435.2 210.451 434.728 210.408 434.161 210.1 433.73ZM190.64 414.92 187.18 418 183.72 414.92 178 418.38 187 403.79 195.76 418Z" fill="#595959"/><path d="M177 400C177 401.657 175.657 403 174 403 172.343 403 171 401.657 171 400 171 398.343 172.343 397 174 397 175.657 397 177 398.343 177 400Z" fill="#595959"/><path d="M246 375 166 375 166 386 155 386 155 447.79 235 447.79 235 436.79 246 436.79ZM229 442 161 442 161 391.79 229 391.79ZM240 431 235 431 235 386 172 386 172 381 240 381Z" fill="#595959"/></g></g></g><g clip-path="url(#clip5)" filter="url(#fx0)" transform="translate(137 267)"><g clip-path="url(#clip6)"><path d="M20.2524-11.4902C20.2524-17.5124 17.3799-20.5234 11.6348-20.5234L7.55176-20.5234 7.55176-2.0415 12.1948-2.0415C14.7362-2.0415 16.7144-2.86654 18.1296-4.5166 19.5448-6.16667 20.2524-8.49121 20.2524-11.4902ZM24.6787-11.4902C24.6787-8.84049 24.1849-6.54004 23.1973-4.58887 22.2096-2.6377 20.7974-1.14421 18.9607-0.108398 17.1239 0.927409 14.9891 1.44531 12.5562 1.44531L3.17969 1.44531 3.17969-24.0103 11.7251-24.0103C15.9406-24.0103 19.1534-22.9443 21.3635-20.8125 23.5736-18.6807 24.6787-15.5732 24.6787-11.4902ZM32.7591-7.02783C32.8193-5.13688 33.2379-3.68254 34.0147-2.66479 34.7916-1.64705 35.8545-1.13818 37.2035-1.13818 38.1188-1.13818 38.9348-1.36702 39.6515-1.82471 40.3681-2.28239 41.0155-3.05322 41.5936-4.13721L44.8636-2.56543C44.153-1.42122 43.4424-0.554036 42.7318 0.0361328 42.0212 0.626302 41.1931 1.06893 40.2476 1.36401 39.3022 1.6591 38.179 1.80664 36.8783 1.80664 34.1683 1.80664 32.0786 0.954508 30.6092-0.749756 29.1398-2.45402 28.4051-4.84782 28.4051-7.93115 28.4051-11.0386 29.1759-13.4023 30.7176-15.0222 32.2593-16.6422 34.361-17.4521 37.0228-17.4521 39.6605-17.4521 41.6779-16.588 43.075-14.8596 44.4722-13.1313 45.1707-10.6893 45.1707-7.53369L45.1707-7.02783ZM36.8783-14.5796C35.6618-14.5796 34.6922-14.146 33.9696-13.2788 33.2469-12.4116 32.8555-11.2132 32.7952-9.68359L40.8529-9.68359C40.7324-11.3216 40.3591-12.5471 39.7327-13.3601 39.1064-14.1731 38.1549-14.5796 36.8783-14.5796ZM61.5895 1.44531 61.5895-8.90674C61.5895-10.7856 61.2974-12.1346 60.7133-12.9536 60.1292-13.7726 59.2048-14.1821 57.9401-14.1821 56.5791-14.1821 55.5102-13.6582 54.7333-12.6104 53.9565-11.5625 53.568-10.1413 53.568-8.34668L53.568 1.44531 49.4128 1.44531 49.4128-12.8091C49.4128-14.2423 49.3586-15.6636 49.2502-17.0728L53.2067-17.0728C53.3392-15.2661 53.4054-14.0737 53.4054-13.4956L53.4777-13.4956C54.1883-14.8807 55.0133-15.8864 55.9528-16.5127 56.8923-17.139 58.1027-17.4521 59.5841-17.4521 61.6437-17.4521 63.1884-16.8439 64.2182-15.6274 65.248-14.411 65.7629-12.5321 65.7629-9.99072L65.7629 1.44531ZM89.0415-7.85889C89.0415-4.83577 88.2014-2.46908 86.5212-0.758789 84.8411 0.951497 82.4834 1.80664 79.4482 1.80664 76.5094 1.80664 74.209 0.939453 72.5469-0.794922 70.8848-2.5293 70.0537-4.88395 70.0537-7.85889 70.0537-10.882 70.8878-13.2367 72.5559-14.9229 74.224-16.609 76.5576-17.4521 79.5566-17.4521 82.652-17.4521 85.0067-16.6301 86.6206-14.9861 88.2345-13.342 89.0415-10.9663 89.0415-7.85889ZM84.6875-7.85889C84.6875-12.2069 83.0073-14.3809 79.647-14.3809 76.1541-14.3809 74.4077-12.2069 74.4077-7.85889 74.4077-5.72705 74.8353-4.09505 75.6904-2.96289 76.5456-1.83073 77.7861-1.26465 79.4121-1.26465 82.929-1.26465 84.6875-3.46273 84.6875-7.85889ZM93.5794-21.2642 93.5794-24.8232 97.7166-24.8232 97.7166-21.2642ZM93.5794 1.44531 93.5794-17.0728 97.7347-17.0728 97.7347 1.44531ZM115.481-3.88428C115.481-2.10173 114.876-0.707601 113.665 0.298096 112.455 1.30379 110.76 1.80664 108.58 1.80664 106.315 1.80664 104.653 1.45133 103.593 0.740723 102.534 0.0301107 101.835-1.1141 101.498-2.69189L105.075-3.25195C105.243-2.4209 105.602-1.82471 106.15-1.46338 106.698-1.10205 107.484-0.921387 108.507-0.921387 109.435-0.921387 110.185-1.12012 110.757-1.51758 111.329-1.91504 111.615-2.55941 111.615-3.45068 111.615-3.99268 111.488-4.44132 111.236-4.79663 110.983-5.15194 110.606-5.45907 110.106-5.71802 109.607-5.97697 108.634-6.29915 107.189-6.68457 105.864-7.03385 104.879-7.4283 104.235-7.86792 103.59-8.30754 103.094-8.86157 102.744-9.53003 102.395-10.1985 102.22-11.0205 102.22-11.9961 102.22-13.7184 102.759-15.0583 103.837-16.0159 104.915-16.9734 106.49-17.4521 108.562-17.4521 110.477-17.4521 111.949-17.0999 112.979-16.3953 114.009-15.6907 114.656-14.6097 114.921-13.1523L111.308-12.7729C111.175-13.4836 110.883-13.9834 110.432-14.2725 109.98-14.5615 109.369-14.7061 108.598-14.7061 106.9-14.7061 106.05-13.9593 106.05-12.4658 106.05-11.984 106.156-11.5866 106.367-11.2734 106.577-10.9603 106.885-10.6923 107.288-10.4695 107.691-10.2467 108.61-9.9305 110.043-9.521 111.621-9.07536 112.741-8.62671 113.403-8.17505 114.066-7.72339 114.578-7.1543 114.939-6.46777 115.3-5.78125 115.481-4.92008 115.481-3.88428ZM122.759-7.02783C122.819-5.13688 123.238-3.68254 124.015-2.66479 124.792-1.64705 125.854-1.13818 127.203-1.13818 128.119-1.13818 128.935-1.36702 129.651-1.82471 130.368-2.28239 131.015-3.05322 131.594-4.13721L134.864-2.56543C134.153-1.42122 133.442-0.554036 132.732 0.0361328 132.021 0.626302 131.193 1.06893 130.248 1.36401 129.302 1.6591 128.179 1.80664 126.878 1.80664 124.168 1.80664 122.079 0.954508 120.609-0.749756 119.14-2.45402 118.405-4.84782 118.405-7.93115 118.405-11.0386 119.176-13.4023 120.718-15.0222 122.259-16.6422 124.361-17.4521 127.023-17.4521 129.66-17.4521 131.678-16.588 133.075-14.8596 134.472-13.1313 135.171-10.6893 135.171-7.53369L135.171-7.02783ZM126.878-14.5796C125.662-14.5796 124.692-14.146 123.97-13.2788 123.247-12.4116 122.855-11.2132 122.795-9.68359L130.853-9.68359C130.732-11.3216 130.359-12.5471 129.733-13.3601 129.106-14.1731 128.155-14.5796 126.878-14.5796Z" fill="#FFFFFF" transform="translate(26.7899 50)"/></g></g><text fill="#FFFFFF" font-family="DengXian,DengXian_MSFontService,sans-serif" font-weight="700" font-size="37" transform="translate(162.951 316)">Denoise</text><g clip-path="url(#clip7)"><g clip-path="url(#clip8)"><g clip-path="url(#clip9)"><path d="M423 379.8C423.3 370.5 423 362 418 353.8 412.4 344.6 403.5 337.8 392.7 336.5 381.9 335.2 371 338 362.1 344.2 354.5 349.8 348 359.9 348 369.6 349.2 362.2 353.4 355.6 359.7 351.4 366 347.2 373.7 345.9 381 347.7 387.9 349.3 393.6 354.6 397.4 360.5 401.2 366.4 401 373 401 379.8L388 379.8 412 403.8C412 403.8 431.9 383.9 436 379.8L423 379.8Z" fill="#AFABAB"/></g></g></g><g clip-path="url(#clip10)"><g clip-path="url(#clip11)"><g clip-path="url(#clip12)"><path d="M223 534C213.7 534.3 205.2 534 197 529 187.8 523.4 181 514.5 179.7 503.7 178.4 492.9 181.2 482 187.4 473.1 193 465.5 203.1 459 212.8 459 205.4 460.2 198.8 464.4 194.6 470.7 190.5 477 189.1 484.7 191 492 192.6 498.9 197.9 504.6 203.8 508.4 209.7 512.2 216.2 512 223 512L223 499 247 523C247 523 227.1 542.9 223 547L223 534Z" fill="#AFABAB"/></g></g></g><g clip-path="url(#clip13)"><g clip-path="url(#clip14)"><g clip-path="url(#clip15)"><path d="M420 470.6 406.31 448.78C406.065 448.38 405.629 448.137 405.16 448.14 404.689 448.14 404.251 448.382 404 448.78L400 455.2 408.58 469.08C409.306 470.178 409.462 471.557 409 472.79L418.7 472.79C419.494 472.83 420.17 472.218 420.21 471.424 420.224 471.134 420.151 470.847 420 470.6Z" fill="#FFFFFF"/><path d="M405.1 470.73 383.35 435.34C383.071 434.979 382.636 434.775 382.18 434.79L382 434.79 381.82 434.79C381.364 434.775 380.929 434.979 380.65 435.34L358.9 470.73C358.592 471.161 358.549 471.728 358.79 472.2 359.033 472.628 359.513 472.862 360 472.79L404 472.79C404.487 472.862 404.967 472.628 405.21 472.2 405.451 471.728 405.408 471.161 405.1 470.73ZM385.64 451.92 382.18 455 378.72 451.92 373 455.38 382 440.79 390.76 455Z" fill="#FFFFFF"/><path d="M372 437C372 438.657 370.657 440 369 440 367.343 440 366 438.657 366 437 366 435.343 367.343 434 369 434 370.657 434 372 435.343 372 437Z" fill="#FFFFFF"/><path d="M441 412 361 412 361 423 350 423 350 484.79 430 484.79 430 473.79 441 473.79ZM424 479 356 479 356 428.79 424 428.79ZM435 468 430 468 430 423 367 423 367 418 435 418Z" fill="#FFFFFF"/></g></g></g><g clip-path="url(#clip16)"><g clip-path="url(#clip17)"><g clip-path="url(#clip18)"><path d="M27.7708 48.4375 27.5771 48.4375C26.7375 48.3729 26.0271 47.7271 25.8333 46.8875L21.3771 23.25 18.6 31.6458C18.3417 32.4208 17.6312 32.9375 16.7917 32.9375L5.16667 32.9375 5.16667 29.0625 15.3708 29.0625 20.0854 14.9187C20.3438 14.0792 21.1833 13.5625 22.0229 13.6271 22.8625 13.6917 23.6375 14.3375 23.7667 15.1771L28.2875 39.3958 34.875 21.9583C35.1979 21.1833 35.9083 20.6667 36.7479 20.7312 37.5875 20.7958 38.2979 21.3125 38.5562 22.1521L42.2375 34.2292 46.3708 29.7083C46.7583 29.3208 47.275 29.0625 47.7917 29.0625L56.8333 29.0625 56.8333 32.9375 48.6313 32.9375 42.7542 39.3958C42.3021 39.9125 41.5917 40.1062 40.8812 39.9771 40.1708 39.8479 39.6542 39.3312 39.4604 38.6208L36.5542 28.675 29.5792 47.2104C29.3208 47.9208 28.5458 48.4375 27.7708 48.4375Z" stroke="#FFFFFF" stroke-width="0.645833" fill="#FFFFFF" transform="matrix(1.40323 0 0 1 255 370)"/></g></g></g><g clip-path="url(#clip19)"><g clip-path="url(#clip20)"><g clip-path="url(#clip21)"><path d="M27.7708 48.4375 27.5771 48.4375C26.7375 48.3729 26.0271 47.7271 25.8333 46.8875L21.3771 23.25 18.6 31.6458C18.3417 32.4208 17.6312 32.9375 16.7917 32.9375L5.16667 32.9375 5.16667 29.0625 15.3708 29.0625 20.0854 14.9187C20.3438 14.0792 21.1833 13.5625 22.0229 13.6271 22.8625 13.6917 23.6375 14.3375 23.7667 15.1771L28.2875 39.3958 34.875 21.9583C35.1979 21.1833 35.9083 20.6667 36.7479 20.7312 37.5875 20.7958 38.2979 21.3125 38.5562 22.1521L42.2375 34.2292 46.3708 29.7083C46.7583 29.3208 47.275 29.0625 47.7917 29.0625L56.8333 29.0625 56.8333 32.9375 48.6313 32.9375 42.7542 39.3958C42.3021 39.9125 41.5917 40.1062 40.8812 39.9771 40.1708 39.8479 39.6542 39.3312 39.4604 38.6208L36.5542 28.675 29.5792 47.2104C29.3208 47.9208 28.5458 48.4375 27.7708 48.4375Z" stroke="#FFFFFF" stroke-width="0.645833" fill="#FFFFFF" transform="matrix(1.40323 0 0 1 255 409)"/></g></g></g><g clip-path="url(#clip22)"><g clip-path="url(#clip23)"><g clip-path="url(#clip24)"><path d="M27.7708 48.4375 27.5771 48.4375C26.7375 48.3729 26.0271 47.7271 25.8333 46.8875L21.3771 23.25 18.6 31.6458C18.3417 32.4208 17.6312 32.9375 16.7917 32.9375L5.16667 32.9375 5.16667 29.0625 15.3708 29.0625 20.0854 14.9187C20.3438 14.0792 21.1833 13.5625 22.0229 13.6271 22.8625 13.6917 23.6375 14.3375 23.7667 15.1771L28.2875 39.3958 34.875 21.9583C35.1979 21.1833 35.9083 20.6667 36.7479 20.7312 37.5875 20.7958 38.2979 21.3125 38.5562 22.1521L42.2375 34.2292 46.3708 29.7083C46.7583 29.3208 47.275 29.0625 47.7917 29.0625L56.8333 29.0625 56.8333 32.9375 48.6313 32.9375 42.7542 39.3958C42.3021 39.9125 41.5917 40.1062 40.8812 39.9771 40.1708 39.8479 39.6542 39.3312 39.4604 38.6208L36.5542 28.675 29.5792 47.2104C29.3208 47.9208 28.5458 48.4375 27.7708 48.4375Z" stroke="#FFFFFF" stroke-width="0.645833" fill="#FFFFFF" transform="matrix(1.40323 0 0 1 255 447)"/></g></g></g><rect x="255" y="335" width="87" height="212" stroke="#FFFFFF" stroke-width="4" stroke-linejoin="round" stroke-miterlimit="10" fill="none"/><g clip-path="url(#clip25)"><g clip-path="url(#clip26)"><g clip-path="url(#clip27)"><path d="M6.43333 3.66667 25.5667 16 6.43333 28.3333Z" stroke="#FFFFFF" stroke-width="0.333333" fill="#FFFFFF" transform="matrix(1.03125 0 0 1 302 346)"/></g></g></g><rect x="295" y="338" width="45" height="44" stroke="#FFFFFF" stroke-width="4" stroke-linejoin="round" stroke-miterlimit="10" fill="none"/><g clip-path="url(#clip28)"><g clip-path="url(#clip29)"><g clip-path="url(#clip30)"><path d="M6.43333 3.66667 25.5667 16 6.43333 28.3333Z" stroke="#FFFFFF" stroke-width="0.333333" fill="#FFFFFF" transform="matrix(1.03125 0 0 1 262 511)"/></g></g></g><rect x="255" y="503" width="45" height="44" stroke="#FFFFFF" stroke-width="4" stroke-linejoin="round" stroke-miterlimit="10" fill="none"/></g></svg>