<svg width="310" height="297" xmlns="http://www.w3.org/2000/svg" xmlns:xlink="http://www.w3.org/1999/xlink" overflow="hidden"><defs><clipPath id="clip0"><rect x="477" y="243" width="310" height="297"/></clipPath></defs><g clip-path="url(#clip0)" transform="translate(-477 -243)"><path d="M494.5 391C494.5 316.165 555.389 255.5 630.5 255.5 705.611 255.5 766.5 316.165 766.5 391 766.5 465.835 705.611 526.5 630.5 526.5 555.389 526.5 494.5 465.835 494.5 391Z" stroke="#FFFFFF" stroke-width="3" stroke-linejoin="round" stroke-miterlimit="10" fill="none" fill-rule="evenodd"/><path d="M532.5 294.5 729.457 294.5" stroke="#FFFFFF" stroke-width="3" stroke-miterlimit="8" fill="none" fill-rule="evenodd"/><path d="M532.5 485.5 729.457 485.5" stroke="#FFFFFF" stroke-width="3" stroke-miterlimit="8" fill="none" fill-rule="evenodd"/><path d="M532.5 294.5 532.5 485.643" stroke="#FFFFFF" stroke-width="3" stroke-miterlimit="8" fill="none" fill-rule="evenodd"/><path d="M729.5 294.5 729.5 485.643" stroke="#FFFFFF" stroke-width="3" stroke-miterlimit="8" fill="none" fill-rule="evenodd"/><path d="M561 341C561 334.373 566.373 329 573 329 579.627 329 585 334.373 585 341 585 347.627 579.627 353 573 353 566.373 353 561 347.627 561 341Z" fill="#FFFFFF" fill-rule="evenodd"/><path d="M682 340C682 333.373 687.149 328 693.5 328 699.851 328 705 333.373 705 340 705 346.627 699.851 352 693.5 352 687.149 352 682 346.627 682 340Z" fill="#FFFFFF" fill-rule="evenodd"/><path d="M682 395C682 388.373 687.149 383 693.5 383 699.851 383 705 388.373 705 395 705 401.627 699.851 407 693.5 407 687.149 407 682 401.627 682 395Z" fill="#FFFFFF" fill-rule="evenodd"/><path d="M563 398C563 391.373 568.373 386 575 386 581.627 386 587 391.373 587 398 587 404.627 581.627 410 575 410 568.373 410 563 404.627 563 398Z" fill="#FFFFFF" fill-rule="evenodd"/><path d="M623 397C623 390.373 628.373 385 635 385 641.627 385 647 390.373 647 397 647 403.627 641.627 409 635 409 628.373 409 623 403.627 623 397Z" fill="#FFFFFF" fill-rule="evenodd"/><path d="M623 341C623 334.373 628.373 329 635 329 641.627 329 647 334.373 647 341 647 347.627 641.627 353 635 353 628.373 353 623 347.627 623 341Z" fill="#FFFFFF" fill-rule="evenodd"/><path d="M681 451C681 444.373 686.373 439 693 439 699.627 439 705 444.373 705 451 705 457.627 699.627 463 693 463 686.373 463 681 457.627 681 451Z" fill="#FFFFFF" fill-rule="evenodd"/><path d="M562 454C562 447.373 567.373 442 574 442 580.627 442 586 447.373 586 454 586 460.627 580.627 466 574 466 567.373 466 562 460.627 562 454Z" fill="#FFFFFF" fill-rule="evenodd"/><path d="M623 453C623 446.373 628.373 441 635 441 641.627 441 647 446.373 647 453 647 459.627 641.627 465 635 465 628.373 465 623 459.627 623 453Z" fill="#FFFFFF" fill-rule="evenodd"/></g></svg>