<svg width="310" height="308" xmlns="http://www.w3.org/2000/svg" xmlns:xlink="http://www.w3.org/1999/xlink" overflow="hidden"><defs><filter id="fx0" x="-10%" y="-10%" width="120%" height="120%" filterUnits="userSpaceOnUse" primitiveUnits="userSpaceOnUse"><feComponentTransfer color-interpolation-filters="sRGB"><feFuncR type="discrete" tableValues="0 0"/><feFuncG type="discrete" tableValues="0 0"/><feFuncB type="discrete" tableValues="0 0"/><feFuncA type="linear" slope="0.4" intercept="0"/></feComponentTransfer><feGaussianBlur stdDeviation="0.723123 0.723123"/></filter><filter id="fx1" x="-10%" y="-10%" width="120%" height="120%" filterUnits="userSpaceOnUse" primitiveUnits="userSpaceOnUse"><feComponentTransfer color-interpolation-filters="sRGB"><feFuncR type="discrete" tableValues="0 0"/><feFuncG type="discrete" tableValues="0 0"/><feFuncB type="discrete" tableValues="0 0"/><feFuncA type="linear" slope="0.4" intercept="0"/></feComponentTransfer><feGaussianBlur stdDeviation="0.723123 0.723123"/></filter><clipPath id="clip2"><rect x="87" y="217" width="310" height="308"/></clipPath><clipPath id="clip3"><rect x="91" y="402" width="143" height="123"/></clipPath><clipPath id="clip4"><rect x="91" y="402" width="143" height="123"/></clipPath><clipPath id="clip5"><rect x="91" y="402" width="143" height="123"/></clipPath><clipPath id="clip6"><rect x="27" y="23" width="28" height="31"/></clipPath><clipPath id="clip7"><rect x="0" y="0" width="80" height="86"/></clipPath><clipPath id="clip8"><rect x="26" y="22" width="176" height="32"/></clipPath><clipPath id="clip9"><rect x="0" y="0" width="228" height="86"/></clipPath></defs><g clip-path="url(#clip2)" transform="translate(-87 -217)"><path d="M229 375C229 329.16 266.16 292 312 292 357.84 292 395 329.16 395 375 395 420.84 357.84 458 312 458 266.16 458 229 420.84 229 375Z" stroke="#FFFFFF" stroke-width="2" stroke-linejoin="round" stroke-miterlimit="10" fill="none" fill-rule="evenodd"/><path d="M243 330 380.827 330" stroke="#FFFFFF" stroke-width="2" stroke-miterlimit="8" fill="none" fill-rule="evenodd"/><path d="M243 423 380.827 423" stroke="#FFFFFF" stroke-width="2" stroke-miterlimit="8" fill="none" fill-rule="evenodd"/><path d="M265 308 265 442.543" stroke="#FFFFFF" stroke-width="2" stroke-miterlimit="8" fill="none" fill-rule="evenodd"/><path d="M360 308 360 442.543" stroke="#FFFFFF" stroke-width="2" stroke-miterlimit="8" fill="none" fill-rule="evenodd"/><path d="M275 347.5C275 344.462 277.686 342 281 342 284.314 342 287 344.462 287 347.5 287 350.538 284.314 353 281 353 277.686 353 275 350.538 275 347.5Z" fill="#FFFFFF" fill-rule="evenodd"/><path d="M310 362C310 358.686 312.462 356 315.5 356 318.538 356 321 358.686 321 362 321 365.314 318.538 368 315.5 368 312.462 368 310 365.314 310 362Z" fill="#FFFFFF" fill-rule="evenodd"/><path d="M295 384C295 380.686 297.686 378 301 378 304.314 378 307 380.686 307 384 307 387.314 304.314 390 301 390 297.686 390 295 387.314 295 384Z" fill="#FFFFFF" fill-rule="evenodd"/><path d="M334 393C334 389.686 336.686 387 340 387 343.314 387 346 389.686 346 393 346 396.314 343.314 399 340 399 336.686 399 334 396.314 334 393Z" fill="#FFFFFF" fill-rule="evenodd"/><path d="M279 411C279 407.686 281.462 405 284.5 405 287.538 405 290 407.686 290 411 290 414.314 287.538 417 284.5 417 281.462 417 279 414.314 279 411Z" fill="#FFFFFF" fill-rule="evenodd"/><path d="M318 397.5C318 394.462 320.462 392 323.5 392 326.538 392 329 394.462 329 397.5 329 400.538 326.538 403 323.5 403 320.462 403 318 400.538 318 397.5Z" fill="#FFFFFF" fill-rule="evenodd"/><path d="M337 343.5C337 340.462 339.686 338 343 338 346.314 338 349 340.462 349 343.5 349 346.538 346.314 349 343 349 339.686 349 337 346.538 337 343.5Z" fill="#FFFFFF" fill-rule="evenodd"/><path d="M239 360C239 356.686 241.686 354 245 354 248.314 354 251 356.686 251 360 251 363.314 248.314 366 245 366 241.686 366 239 363.314 239 360Z" fill="#FFFFFF" fill-rule="evenodd"/><path d="M249 412C249 408.686 251.686 406 255 406 258.314 406 261 408.686 261 412 261 415.314 258.314 418 255 418 251.686 418 249 415.314 249 412Z" fill="#FFFFFF" fill-rule="evenodd"/><path d="M277 309.5C277 306.462 279.686 304 283 304 286.314 304 289 306.462 289 309.5 289 312.538 286.314 315 283 315 279.686 315 277 312.538 277 309.5Z" fill="#FFFFFF" fill-rule="evenodd"/><path d="M317 321C317 317.686 319.686 315 323 315 326.314 315 329 317.686 329 321 329 324.314 326.314 327 323 327 319.686 327 317 324.314 317 321Z" fill="#FFFFFF" fill-rule="evenodd"/><path d="M286 440.5C286 437.462 288.462 435 291.5 435 294.538 435 297 437.462 297 440.5 297 443.538 294.538 446 291.5 446 288.462 446 286 443.538 286 440.5Z" fill="#FFFFFF" fill-rule="evenodd"/><path d="M373 357.5C373 354.462 375.462 352 378.5 352 381.538 352 384 354.462 384 357.5 384 360.538 381.538 363 378.5 363 375.462 363 373 360.538 373 357.5Z" fill="#FFFFFF" fill-rule="evenodd"/><path d="M365 409C365 405.686 367.686 403 371 403 374.314 403 377 405.686 377 409 377 412.314 374.314 415 371 415 367.686 415 365 412.314 365 409Z" fill="#FFFFFF" fill-rule="evenodd"/><path d="M338 431.5C338 428.462 340.462 426 343.5 426 346.538 426 349 428.462 349 431.5 349 434.538 346.538 437 343.5 437 340.462 437 338 434.538 338 431.5Z" fill="#FFFFFF" fill-rule="evenodd"/><path d="M329 309C329 305.686 331.686 303 335 303 338.314 303 341 305.686 341 309 341 312.314 338.314 315 335 315 331.686 315 329 312.314 329 309Z" fill="#FFFFFF" fill-rule="evenodd"/><g clip-path="url(#clip3)"><g clip-path="url(#clip4)"><g clip-path="url(#clip5)"><path d="M105.062 48.6875 79.4375 48.6875 79.4375 33.3125 105.062 33.3125 105.062 48.6875ZM105.062 69.1875 79.4375 69.1875 79.4375 53.8125 105.062 53.8125 105.062 69.1875ZM105.062 89.6875 79.4375 89.6875 79.4375 74.3125 105.062 74.3125 105.062 89.6875ZM48.6875 89.6875 48.6875 74.3125 74.3125 74.3125 74.3125 89.6875 48.6875 89.6875ZM17.9375 89.6875 17.9375 74.3125 43.5625 74.3125 43.5625 89.6875 17.9375 89.6875ZM17.9375 53.8125 43.5625 53.8125 43.5625 69.1875 17.9375 69.1875 17.9375 53.8125ZM17.9375 33.3125 43.5625 33.3125 43.5625 48.6875 17.9375 48.6875 17.9375 33.3125ZM74.3125 53.8125 74.3125 69.1875 48.6875 69.1875 48.6875 53.8125 74.3125 53.8125ZM74.3125 33.3125 74.3125 48.6875 48.6875 48.6875 48.6875 33.3125 74.3125 33.3125ZM10.25 25.625 10.25 97.375 112.75 97.375 112.75 25.625 10.25 25.625Z" fill="#FFFFFF" transform="matrix(1.1626 0 0 1 91 402)"/></g></g></g><path d="M142.5 461.5C142.5 449.35 152.126 439.5 164 439.5 175.874 439.5 185.5 449.35 185.5 461.5 185.5 473.65 175.874 483.5 164 483.5 152.126 483.5 142.5 473.65 142.5 461.5Z" stroke="#FFFFFF" stroke-width="3" stroke-linejoin="round" stroke-miterlimit="10" stroke-dasharray="12 9" fill="none" fill-rule="evenodd"/><path d="M0 0 148.331 24.7942" stroke="#FFFFFF" stroke-width="3" stroke-linejoin="round" stroke-miterlimit="10" stroke-dasharray="12 9" fill="none" fill-rule="evenodd" transform="matrix(1 0 0 -1 163.5 483.294)"/><path d="M0 0 105.042 129.304" stroke="#FFFFFF" stroke-width="3" stroke-linejoin="round" stroke-miterlimit="10" stroke-dasharray="12 9" fill="none" fill-rule="evenodd" transform="matrix(1 0 0 -1 148.5 446.805)"/><g clip-path="url(#clip6)" filter="url(#fx0)" transform="translate(91 219)"><g clip-path="url(#clip7)"><path d="M20.2524-11.4902C20.2524-17.5124 17.3799-20.5234 11.6348-20.5234L7.55176-20.5234 7.55176-2.0415 12.1948-2.0415C14.7362-2.0415 16.7144-2.86654 18.1296-4.5166 19.5448-6.16667 20.2524-8.49121 20.2524-11.4902ZM24.6787-11.4902C24.6787-8.84049 24.1849-6.54004 23.1973-4.58887 22.2096-2.6377 20.7974-1.14421 18.9607-0.108398 17.1239 0.927409 14.9891 1.44531 12.5562 1.44531L3.17969 1.44531 3.17969-24.0103 11.7251-24.0103C15.9406-24.0103 19.1534-22.9443 21.3635-20.8125 23.5736-18.6807 24.6787-15.5732 24.6787-11.4902Z" fill="#FFFFFF" transform="translate(26.7669 50)"/></g></g><text fill="#FFFFFF" font-family="DengXian,DengXian_MSFontService,sans-serif" font-weight="700" font-size="37" transform="translate(116.928 268)">D</text><g clip-path="url(#clip8)" filter="url(#fx1)" transform="translate(118 219)"><g clip-path="url(#clip9)"><path d="M2.74609-21.2642 2.74609-24.8232 6.8833-24.8232 6.8833-21.2642ZM2.74609 1.44531 2.74609-17.0728 6.90137-17.0728 6.90137 1.44531ZM24.6478-3.88428C24.6478-2.10173 24.0426-0.707601 22.8321 0.298096 21.6217 1.30379 19.9264 1.80664 17.7464 1.80664 15.4821 1.80664 13.82 1.45133 12.7601 0.740723 11.7002 0.0301107 11.0016-1.1141 10.6644-2.69189L14.2415-3.25195C14.4102-2.4209 14.7685-1.82471 15.3165-1.46338 15.8645-1.10205 16.6504-0.921387 17.6742-0.921387 18.6016-0.921387 19.3513-1.12012 19.9234-1.51758 20.4955-1.91504 20.7816-2.55941 20.7816-3.45068 20.7816-3.99268 20.6551-4.44132 20.4022-4.79663 20.1493-5.15194 19.7729-5.45907 19.273-5.71802 18.7732-5.97697 17.8006-6.29915 16.3553-6.68457 15.0304-7.03385 14.0458-7.4283 13.4014-7.86792 12.7571-8.30754 12.2603-8.86157 11.911-9.53003 11.5617-10.1985 11.387-11.0205 11.387-11.9961 11.387-13.7184 11.926-15.0583 13.004-16.0159 14.0819-16.9734 15.6567-17.4521 17.7284-17.4521 19.6434-17.4521 21.1158-17.0999 22.1456-16.3953 23.1754-15.6907 23.8228-14.6097 24.0877-13.1523L20.4744-12.7729C20.342-13.4836 20.0499-13.9834 19.5982-14.2725 19.1466-14.5615 18.5353-14.7061 17.7645-14.7061 16.0662-14.7061 15.2171-13.9593 15.2171-12.4658 15.2171-11.984 15.3225-11.5866 15.5333-11.2734 15.7441-10.9603 16.0512-10.6923 16.4547-10.4695 16.8582-10.2467 17.7765-9.9305 19.2098-9.521 20.7876-9.07536 21.9077-8.62671 22.5702-8.17505 23.2326-7.72339 23.7445-7.1543 24.1058-6.46777 24.4671-5.78125 24.6478-4.92008 24.6478-3.88428ZM34.2202 1.77051C32.7749 1.77051 31.6337 1.35799 30.7966 0.532959 29.9596-0.292074 29.541-1.47542 29.541-3.01709L29.541-14.0557 26.813-14.0557 26.813-17.0728 29.5952-17.0728 30.9141-21.5532 33.6782-21.5532 33.6782-17.0728 38.1406-17.0728 38.1406-14.0557 33.6782-14.0557 33.6782-4.06494C33.6782-2.23421 34.4551-1.31885 36.0088-1.31885 36.7435-1.31885 37.5324-1.39714 38.3755-1.55371L38.3755 1.22852C37.0024 1.58984 35.6173 1.77051 34.2202 1.77051ZM50.8096-14.0015C49.4606-14.0015 48.3826-13.4083 47.5757-12.2219 46.7687-11.0356 46.3652-9.43669 46.3652-7.42529L46.3652 1.44531 42.21 1.44531 42.21-12.502C42.21-14.4531 42.1678-15.9767 42.0835-17.0728L46.04-17.0728C46.1605-15.6274 46.2207-14.2303 46.2207-12.8813L46.293-12.8813C46.8711-14.5916 47.5396-15.781 48.2983-16.4495 49.0571-17.1179 50.0568-17.4521 51.2974-17.4521 51.8634-17.4521 52.3332-17.3739 52.7065-17.2173L52.7065-13.8027C52.0923-13.9352 51.46-14.0015 50.8096-14.0015ZM56.0794-21.2642 56.0794-24.8232 60.2166-24.8232 60.2166-21.2642ZM56.0794 1.44531 56.0794-17.0728 60.2347-17.0728 60.2347 1.44531ZM83.8708-7.91309C83.8708-4.8418 83.1752-2.46004 81.7841-0.767822 80.393 0.924398 78.4268 1.77051 75.8854 1.77051 73.1514 1.77051 71.2183 0.650391 70.0861-1.58984L70.0138-1.58984C70.0138-0.578125 69.9416 0.433594 69.797 1.44531L65.7502 1.44531C65.8586 0.325195 65.9128-1.05387 65.9128-2.69189L65.9128-24.8232 70.068-24.8232 70.068-16.8198C70.068-16.3381 70.062-15.8593 70.05-15.3835 70.0379-14.9078 70.0199-14.4411 69.9958-13.9834L70.068-13.9834C70.6341-15.1035 71.3989-15.9647 72.3625-16.5669 73.326-17.1691 74.5907-17.4702 76.1564-17.4702 78.6255-17.4702 80.5285-16.6422 81.8654-14.9861 83.2023-13.33 83.8708-10.9723 83.8708-7.91309ZM79.5348-7.91309C79.5348-12.2611 78.0052-14.4351 74.946-14.4351 73.32-14.4351 72.0885-13.863 71.2514-12.7188 70.4143-11.5745 69.9958-9.92448 69.9958-7.76855 69.9958-5.66081 70.4053-4.04688 71.2243-2.92676 72.0433-1.80664 73.2718-1.24658 74.9098-1.24658 77.9932-1.24658 79.5348-3.46875 79.5348-7.91309ZM92.3151-17.0728 92.3151-6.7207C92.3151-4.8418 92.6102-3.49284 93.2004-2.67383 93.7905-1.85482 94.7119-1.44531 95.9645-1.44531 97.3135-1.44531 98.3854-1.96021 99.1803-2.98999 99.9753-4.01978 100.373-5.45605 100.373-7.29883L100.373-17.0728 104.528-17.0728 104.528-2.83643C104.528-1.39111 104.582 0.0361328 104.691 1.44531L100.734 1.44531C100.602-0.385417 100.535-1.5778 100.535-2.13184L100.463-2.13184C99.7404-0.710612 98.9063 0.301107 97.9609 0.90332 97.0154 1.50553 95.8019 1.80664 94.3205 1.80664 92.2729 1.80664 90.7343 1.19539 89.7045-0.0270996 88.6747-1.24959 88.1598-3.12549 88.1598-5.65479L88.1598-17.0728ZM115.72 1.77051C114.275 1.77051 113.134 1.35799 112.297 0.532959 111.46-0.292074 111.041-1.47542 111.041-3.01709L111.041-14.0557 108.313-14.0557 108.313-17.0728 111.095-17.0728 112.414-21.5532 115.178-21.5532 115.178-17.0728 119.641-17.0728 119.641-14.0557 115.178-14.0557 115.178-4.06494C115.178-2.23421 115.955-1.31885 117.509-1.31885 118.243-1.31885 119.032-1.39714 119.875-1.55371L119.875 1.22852C118.502 1.58984 117.117 1.77051 115.72 1.77051ZM123.746-21.2642 123.746-24.8232 127.883-24.8232 127.883-21.2642ZM123.746 1.44531 123.746-17.0728 127.901-17.0728 127.901 1.44531ZM151.375-7.85889C151.375-4.83577 150.535-2.46908 148.855-0.758789 147.174 0.951497 144.817 1.80664 141.782 1.80664 138.843 1.80664 136.542 0.939453 134.88-0.794922 133.218-2.5293 132.387-4.88395 132.387-7.85889 132.387-10.882 133.221-13.2367 134.889-14.9229 136.557-16.609 138.891-17.4521 141.89-17.4521 144.985-17.4521 147.34-16.6301 148.954-14.9861 150.568-13.342 151.375-10.9663 151.375-7.85889ZM147.021-7.85889C147.021-12.2069 145.341-14.3809 141.98-14.3809 138.487-14.3809 136.741-12.2069 136.741-7.85889 136.741-5.72705 137.169-4.09505 138.024-2.96289 138.879-1.83073 140.119-1.26465 141.745-1.26465 145.262-1.26465 147.021-3.46273 147.021-7.85889ZM168.09 1.44531 168.09-8.90674C168.09-10.7856 167.797-12.1346 167.213-12.9536 166.629-13.7726 165.705-14.1821 164.44-14.1821 163.079-14.1821 162.01-13.6582 161.233-12.6104 160.456-11.5625 160.068-10.1413 160.068-8.34668L160.068 1.44531 155.913 1.44531 155.913-12.8091C155.913-14.2423 155.859-15.6636 155.75-17.0728L159.707-17.0728C159.839-15.2661 159.905-14.0737 159.905-13.4956L159.978-13.4956C160.688-14.8807 161.513-15.8864 162.453-16.5127 163.392-17.139 164.603-17.4521 166.084-17.4521 168.144-17.4521 169.688-16.8439 170.718-15.6274 171.748-14.411 172.263-12.5321 172.263-9.99072L172.263 1.44531Z" fill="#FFFFFF" transform="translate(26.6003 50)"/></g></g><text fill="#FFFFFF" font-family="DengXian,DengXian_MSFontService,sans-serif" font-weight="700" font-size="37" transform="translate(143.761 268)">istribution</text></g></svg>