<svg width="310" height="297" xmlns="http://www.w3.org/2000/svg" xmlns:xlink="http://www.w3.org/1999/xlink" overflow="hidden"><defs><clipPath id="clip0"><rect x="843" y="243" width="310" height="297"/></clipPath></defs><g clip-path="url(#clip0)" transform="translate(-843 -243)"><path d="M860.5 391C860.5 316.165 921.389 255.5 996.5 255.5 1071.61 255.5 1132.5 316.165 1132.5 391 1132.5 465.835 1071.61 526.5 996.5 526.5 921.389 526.5 860.5 465.835 860.5 391Z" stroke="#FFFFFF" stroke-width="3" stroke-linejoin="round" stroke-miterlimit="10" fill="none" fill-rule="evenodd"/><path d="M898.5 294.5 1095.46 294.5" stroke="#FFFFFF" stroke-width="3" stroke-miterlimit="8" fill="none" fill-rule="evenodd"/><path d="M898.5 485.5 1095.46 485.5" stroke="#FFFFFF" stroke-width="3" stroke-miterlimit="8" fill="none" fill-rule="evenodd"/><path d="M898.5 294.5 898.5 485.643" stroke="#FFFFFF" stroke-width="3" stroke-miterlimit="8" fill="none" fill-rule="evenodd"/><path d="M1095.5 294.5 1095.5 485.643" stroke="#FFFFFF" stroke-width="3" stroke-miterlimit="8" fill="none" fill-rule="evenodd"/><path d="M922 326C922 319.373 927.373 314 934 314 940.627 314 946 319.373 946 326 946 332.627 940.627 338 934 338 927.373 338 922 332.627 922 326Z" fill="#FFFFFF" fill-rule="evenodd"/><path d="M1041 337C1041 330.373 1046.37 325 1053 325 1059.63 325 1065 330.373 1065 337 1065 343.627 1059.63 349 1053 349 1046.37 349 1041 343.627 1041 337Z" fill="#FFFFFF" fill-rule="evenodd"/><path d="M1058 389C1058 382.373 1063.37 377 1070 377 1076.63 377 1082 382.373 1082 389 1082 395.627 1076.63 401 1070 401 1063.37 401 1058 395.627 1058 389Z" fill="#FFFFFF" fill-rule="evenodd"/><path d="M937 410C937 403.373 942.149 398 948.5 398 954.851 398 960 403.373 960 410 960 416.627 954.851 422 948.5 422 942.149 422 937 416.627 937 410Z" fill="#FFFFFF" fill-rule="evenodd"/><path d="M1018 413C1018 406.373 1023.37 401 1030 401 1036.63 401 1042 406.373 1042 413 1042 419.627 1036.63 425 1030 425 1023.37 425 1018 419.627 1018 413Z" fill="#FFFFFF" fill-rule="evenodd"/><path d="M993 317C993 310.373 998.373 305 1005 305 1011.63 305 1017 310.373 1017 317 1017 323.627 1011.63 329 1005 329 998.373 329 993 323.627 993 317Z" fill="#FFFFFF" fill-rule="evenodd"/><path d="M1037 460C1037 453.373 1042.37 448 1049 448 1055.63 448 1061 453.373 1061 460 1061 466.627 1055.63 472 1049 472 1042.37 472 1037 466.627 1037 460Z" fill="#FFFFFF" fill-rule="evenodd"/><path d="M966 367C966 360.373 971.373 355 978 355 984.627 355 990 360.373 990 367 990 373.627 984.627 379 978 379 971.373 379 966 373.627 966 367Z" fill="#FFFFFF" fill-rule="evenodd"/><path d="M927 454C927 447.373 932.373 442 939 442 945.627 442 951 447.373 951 454 951 460.627 945.627 466 939 466 932.373 466 927 460.627 927 454Z" fill="#FFFFFF" fill-rule="evenodd"/></g></svg>