<svg width="318" height="297" xmlns="http://www.w3.org/2000/svg" xmlns:xlink="http://www.w3.org/1999/xlink" overflow="hidden"><defs><filter id="fx0" x="-10%" y="-10%" width="120%" height="120%" filterUnits="userSpaceOnUse" primitiveUnits="userSpaceOnUse"><feComponentTransfer color-interpolation-filters="sRGB"><feFuncR type="discrete" tableValues="0 0"/><feFuncG type="discrete" tableValues="0 0"/><feFuncB type="discrete" tableValues="0 0"/><feFuncA type="linear" slope="0.4" intercept="0"/></feComponentTransfer><feGaussianBlur stdDeviation="0.723123 0.723123"/></filter><clipPath id="clip1"><rect x="82" y="256" width="318" height="297"/></clipPath><clipPath id="clip2"><rect x="303" y="303" width="96" height="96"/></clipPath><clipPath id="clip3"><rect x="303" y="303" width="96" height="96"/></clipPath><clipPath id="clip4"><rect x="303" y="303" width="96" height="96"/></clipPath><clipPath id="clip5"><path d="M120.952 341.094 184.521 379.564 146.051 443.133 82.4817 404.663Z" fill-rule="evenodd" clip-rule="evenodd"/></clipPath><clipPath id="clip6"><path d="M120.952 341.094 184.521 379.564 146.051 443.133 82.4817 404.663Z" fill-rule="evenodd" clip-rule="evenodd"/></clipPath><clipPath id="clip7"><path d="M120.952 341.094 184.521 379.564 146.051 443.133 82.4817 404.663Z" fill-rule="evenodd" clip-rule="evenodd"/></clipPath><clipPath id="clip8"><rect x="27" y="23" width="86" height="31"/></clipPath><clipPath id="clip9"><rect x="0" y="0" width="136" height="87"/></clipPath></defs><g clip-path="url(#clip1)" transform="translate(-82 -256)"><g clip-path="url(#clip2)"><g clip-path="url(#clip3)"><g clip-path="url(#clip4)"><path d="M358.33 342.17 359.18 339.65 357.26 337.73 354.74 338.58C354.085 338.211 353.386 337.925 352.66 337.73L351.48 335.38 348.8 335.38 347.61 337.74C346.881 337.937 346.179 338.223 345.52 338.59L343 337.74 341.08 339.66 341.88 342.18C341.496 342.832 341.2 343.531 341 344.26L338.64 345.44 338.64 348.08 341 349.27C341.194 349.996 341.48 350.695 341.85 351.35L341 353.87 343 355.79 345.52 354.93C346.175 355.303 346.873 355.591 347.6 355.79L348.78 358.14 351.46 358.14 352.65 355.83C353.364 355.636 354.052 355.357 354.7 355L357.21 355.86 359.13 353.93 358.28 351.42C358.662 350.76 358.967 350.059 359.19 349.33L361.54 348.15 361.54 345.44 359.18 344.25C358.989 343.522 358.703 342.823 358.33 342.17ZM350.13 350.8C347.921 350.8 346.13 349.009 346.13 346.8 346.13 344.591 347.921 342.8 350.13 342.8 352.326 342.832 354.098 344.604 354.13 346.8 354.13 349.009 352.339 350.8 350.13 350.8Z" fill="#FFD966"/><path d="M358.72 377.79 341.51 377.79C339.917 377.884 338.701 379.252 338.795 380.845 338.881 382.307 340.048 383.474 341.51 383.56L358.72 383.56C360.313 383.466 361.529 382.098 361.435 380.505 361.349 379.043 360.182 377.876 358.72 377.79Z" fill="#FFD966"/><path d="M350.12 393.33C353.385 393.325 356.1 390.815 356.36 387.56L343.87 387.56C344.135 390.816 346.853 393.325 350.12 393.33Z" fill="#FFD966"/><path d="M375.09 347.47 375.09 346.61C374.835 332.96 363.742 322.004 350.09 321.92L350.09 321.92C336.438 322.004 325.345 332.96 325.09 346.61L325.09 347.47C325.181 350.43 325.77 353.354 326.83 356.12 327.842 358.729 329.312 361.137 331.17 363.23 333.46 365.72 335.96 370.57 337.02 372.73 337.344 373.383 338.011 373.794 338.74 373.79L361.44 373.79C362.169 373.794 362.836 373.383 363.16 372.73 364.22 370.57 366.72 365.73 369.01 363.23 370.868 361.137 372.338 358.729 373.35 356.12 374.41 353.354 374.999 350.43 375.09 347.47ZM369.33 347.38C369.259 349.678 368.81 351.948 368 354.1 367.241 356.038 366.144 357.825 364.76 359.38 362.54 362.022 360.637 364.915 359.09 368L341.09 368C339.56 364.907 337.674 362.004 335.47 359.35 334.086 357.795 332.989 356.008 332.23 354.07 331.403 351.921 330.937 349.651 330.85 347.35L330.85 346.63C331.029 336.13 339.559 327.694 350.06 327.63L350.06 327.63C360.561 327.694 369.091 336.13 369.27 346.63Z" fill="#FFD966"/><path d="M350.31 318C351.415 318 352.31 317.105 352.31 316L352.31 309C352.31 307.895 351.415 307 350.31 307 349.205 307 348.31 307.895 348.31 309L348.31 316C348.31 317.105 349.205 318 350.31 318Z" fill="#FFD966"/><path d="M326.58 326.79C327.36 327.565 328.62 327.565 329.4 326.79 330.175 326.01 330.175 324.75 329.4 323.97L324.45 319C323.63 318.26 322.366 318.324 321.625 319.144 320.936 319.908 320.938 321.069 321.63 321.83Z" fill="#FFD966"/><path d="M372.66 327.76C373.193 327.76 373.704 327.548 374.08 327.17L379.02 322.17C379.664 321.273 379.459 320.023 378.562 319.379 377.854 318.871 376.899 318.879 376.2 319.4L371.2 324.4C370.425 325.18 370.425 326.44 371.2 327.22 371.594 327.59 372.12 327.785 372.66 327.76Z" fill="#FFD966"/><path d="M319.25 344.5 312.25 344.5C311.145 344.5 310.25 345.395 310.25 346.5 310.25 347.605 311.145 348.5 312.25 348.5L319.25 348.5C320.355 348.5 321.25 347.605 321.25 346.5 321.25 345.395 320.355 344.5 319.25 344.5Z" fill="#FFD966"/><path d="M326.58 366.14 321.63 371.14C320.791 371.858 320.693 373.121 321.412 373.96 322.13 374.799 323.393 374.897 324.232 374.178 324.31 374.111 324.383 374.038 324.45 373.96L329.4 368.96C330.118 368.121 330.021 366.858 329.182 366.14 328.433 365.499 327.329 365.499 326.58 366.14Z" fill="#FFD966"/><path d="M374.08 365.76C373.34 364.94 372.075 364.876 371.255 365.616 370.435 366.356 370.371 367.621 371.111 368.441 371.155 368.489 371.202 368.536 371.25 368.58L376.25 373.58C376.957 374.429 378.218 374.544 379.067 373.837 379.915 373.13 380.03 371.869 379.323 371.02 379.228 370.905 379.119 370.801 379 370.71Z" fill="#FFD966"/><path d="M388 344.43 381 344.43C379.895 344.43 379 345.325 379 346.43 379 347.535 379.895 348.43 381 348.43L388 348.43C389.105 348.43 390 347.535 390 346.43 390 345.325 389.105 344.43 388 344.43Z" fill="#FFD966"/></g></g></g><g clip-path="url(#clip5)"><g clip-path="url(#clip6)"><g clip-path="url(#clip7)"><path d="M126.007 373.103C125.565 373.835 124.613 374.069 123.882 373.626 123.15 373.183 122.916 372.232 123.359 371.5 123.801 370.769 124.753 370.535 125.484 370.977 126.216 371.42 126.45 372.372 126.007 373.103Z" fill="#FFFFFF"/><path d="M122.801 378.401C122.359 379.132 121.407 379.366 120.676 378.923 119.944 378.481 119.71 377.529 120.153 376.798 120.595 376.066 121.547 375.832 122.279 376.275 123.01 376.717 123.244 377.669 122.801 378.401Z" fill="#FFFFFF"/><path d="M121.756 374.149C121.313 374.88 120.361 375.114 119.63 374.672 118.898 374.229 118.664 373.277 119.107 372.546 119.55 371.815 120.501 371.581 121.233 372.023 121.964 372.466 122.198 373.418 121.756 374.149Z" fill="#FFFFFF"/><path d="M127.053 377.355C126.61 378.086 125.659 378.32 124.927 377.878 124.196 377.435 123.962 376.483 124.404 375.752 124.847 375.02 125.799 374.786 126.53 375.229 127.262 375.672 127.496 376.623 127.053 377.355Z" fill="#FFFFFF"/><path d="M146.151 381.675C145.709 382.406 144.757 382.641 144.025 382.198 143.294 381.755 143.06 380.803 143.503 380.072 143.945 379.341 144.897 379.107 145.628 379.549 146.36 379.992 146.594 380.944 146.151 381.675Z" fill="#FFFFFF"/><path d="M142.945 386.972C142.503 387.704 141.551 387.938 140.82 387.495 140.088 387.053 139.854 386.101 140.297 385.369 140.739 384.638 141.691 384.404 142.422 384.847 143.154 385.289 143.388 386.241 142.945 386.972Z" fill="#FFFFFF"/><path d="M141.9 382.721C141.457 383.452 140.505 383.686 139.774 383.244 139.042 382.801 138.808 381.849 139.251 381.118 139.694 380.386 140.645 380.152 141.377 380.595 142.108 381.038 142.342 381.989 141.9 382.721Z" fill="#FFFFFF"/><path d="M147.197 385.927C146.754 386.658 145.803 386.892 145.071 386.45 144.34 386.007 144.106 385.055 144.548 384.324 144.991 383.592 145.943 383.358 146.674 383.801 147.406 384.243 147.64 385.195 147.197 385.927Z" fill="#FFFFFF"/><path d="M157.217 403.752 150.84 405.32 145.543 402.115 136.726 416.682 142.024 419.888 143.593 426.266 147.566 428.67 161.191 406.156Z" fill="#FFFFFF"/><path d="M139.617 389.482C136.306 387.478 135.261 383.227 137.264 379.916 139.268 376.605 143.52 375.559 146.831 377.563 150.141 379.566 151.187 383.818 149.184 387.129 147.18 390.44 142.928 391.485 139.617 389.482ZM128.78 411.874C128.052 411.433 127.817 410.476 128.258 409.748 128.698 409.019 129.655 408.784 130.383 409.225 131.112 409.666 131.347 410.622 130.906 411.351 130.465 412.079 129.509 412.314 128.78 411.874ZM127.42 385.719C129.002 385.048 130.465 384.124 131.652 382.762 131.511 384.938 132.06 387.17 133.048 389.125L127.42 385.719ZM119.473 380.91C116.163 378.906 115.117 374.655 117.12 371.344 119.124 368.033 123.376 366.987 126.687 368.991 129.998 370.995 131.043 375.246 129.04 378.557 127.036 381.868 122.784 382.914 119.473 380.91ZM142.914 395.096C146.936 395.178 150.912 393.241 153.157 389.533 156.483 384.037 154.731 376.916 149.235 373.59 144.401 370.664 138.344 371.703 134.652 375.711 134.92 371.531 132.932 367.342 129.091 365.018 123.595 361.692 116.474 363.443 113.147 368.939 111.184 372.184 111.05 375.993 112.312 379.29L111.11 381.276 109.785 380.475 109.262 378.349 106.614 376.746 102.606 383.368 105.255 384.971 107.381 384.448 108.705 385.25 101.492 397.169C100.61 398.625 101.081 400.539 102.538 401.42L129.025 417.45C130.481 418.331 132.395 417.861 133.276 416.404L143.695 399.187C144.537 397.797 144.159 396.03 142.914 395.096Z" fill="#FFFFFF"/></g></g></g><path d="M177.293 490.993C181.346 459.888 225.691 436.691 276.339 439.18 301.655 440.424 325.008 448.04 340.865 460.224" stroke="#FFFFFF" stroke-width="4" stroke-miterlimit="8" fill="none" fill-rule="evenodd"/><g clip-path="url(#clip8)" filter="url(#fx0)" transform="translate(81 257)"><g clip-path="url(#clip9)"><path d="M9.1416-24.0103 15.23-9.05127C15.5431-8.31657 16.1875-6.50391 17.1631-3.61328 17.5244-4.78158 18.1989-6.59424 19.1865-9.05127L25.0942-24.0103 31.0381-24.0103 31.0381 1.44531 27.0454 1.44531 27.0454-15.4287C27.0454-16.1755 27.0575-16.9252 27.0815-17.678 27.1056-18.4307 27.1297-19.1865 27.1538-19.9453 26.8768-19.1745 26.6479-18.5452 26.4673-18.0574 26.2866-17.5696 25.8892-16.5368 25.2749-14.959L18.8252 1.44531 15.501 1.44531 8.81641-15.1577C8.10579-16.9523 7.51562-18.5482 7.0459-19.9453 7.06999-19.1986 7.09106-18.4578 7.10913-17.7231 7.1272-16.9884 7.13623-16.2477 7.13623-15.501L7.13623 1.44531 3.16162 1.44531 3.16162-24.0103ZM49.4771-24.0103 58.9619 1.44531 54.5537 1.44531 52.0244-5.51025 41.7446-5.51025 39.2334 1.44531 34.8252 1.44531 44.3281-24.0103ZM46.9116-20.7041C46.6948-20.0055 46.4901-19.3551 46.2974-18.7529 46.1047-18.1507 45.8758-17.4883 45.6108-16.7656L42.7744-8.85254 51.0488-8.85254 48.1943-16.7476C47.7969-17.8315 47.3693-19.1504 46.9116-20.7041ZM68.3525-11.9419 60.2046-24.0103 64.8296-24.0103 70.9722-14.4712 77.0605-24.0103 81.7036-24.0103 73.8267-11.9419 82.4443 1.44531 77.8013 1.44531 70.9722-9.1958 64.0889 1.44531 59.4639 1.44531Z" fill="#FFFFFF" transform="translate(26.782 50)"/></g></g><text fill="#FFFFFF" font-family="DengXian,DengXian_MSFontService,sans-serif" font-weight="700" font-size="37" transform="translate(106.943 306)">MAX</text><path d="M80.1242 14.3898C98.6663 33.8003 98.9103 65.5308 80.6694 85.2617 71.0686 95.6468 57.6964 101.072 44.0353 100.126" stroke="#FFFFFF" stroke-width="4" stroke-miterlimit="8" fill="none" fill-rule="evenodd" transform="matrix(0.0506246 0.998718 0.998718 -0.0506246 168.864 252.831)"/><path d="M268 456 318.949 487.475" stroke="#FFFFFF" stroke-width="2" stroke-miterlimit="8" fill="none" fill-rule="evenodd"/><path d="M246 459 291.597 486.779" stroke="#FFFFFF" stroke-width="2" stroke-miterlimit="8" fill="none" fill-rule="evenodd"/><path d="M225 464 265.282 487.298" stroke="#FFFFFF" stroke-width="2" stroke-miterlimit="8" fill="none" fill-rule="evenodd"/><path d="M213 471 239.123 486.109" stroke="#FFFFFF" stroke-width="2" stroke-miterlimit="8" fill="none" fill-rule="evenodd"/><path d="M202 479 217.821 488.15" stroke="#FFFFFF" stroke-width="2" stroke-miterlimit="8" fill="none" fill-rule="evenodd"/><path d="M242 310 259.24 319.971" stroke="#FFFFFF" stroke-width="2" stroke-miterlimit="8" fill="none" fill-rule="evenodd"/><path d="M229 316 249.552 327.886" stroke="#FFFFFF" stroke-width="2" stroke-miterlimit="8" fill="none" fill-rule="evenodd"/><path d="M211 320 236.922 334.992" stroke="#FFFFFF" stroke-width="2" stroke-miterlimit="8" fill="none" fill-rule="evenodd"/><path d="M198 494 213.821 503.15" stroke="#FFFFFF" stroke-width="2" stroke-miterlimit="8" fill="none" fill-rule="evenodd"/><path d="M209 332 217.62 336.986" stroke="#FFFFFF" stroke-width="2" stroke-miterlimit="8" fill="none" fill-rule="evenodd"/><path d="M158.064 417.307 203.323 445.746 201.195 449.133 155.936 420.693ZM203.758 441.295 210.726 452.76 197.373 451.456Z" fill="#FFFFFF"/><path d="M1.86968-0.710134 13.2318 29.2048 9.49246 30.625-1.86968 0.710134ZM17.4926 40.4229 18.9129 44.1622 15.1735 45.5825 13.7533 41.8431ZM23.1737 55.3803 24.594 59.1197 20.8546 60.5399 19.4343 56.8006ZM28.8548 70.3378 40.2169 100.253 36.4775 101.673 25.1154 71.758ZM46.2913 104.98 44.9431 118.329 35.0732 109.241Z" fill="#FFFFFF" transform="matrix(1 0 0 -1 211 450.329)"/><path d="M254.651 332.109 294.432 345.805 293.13 349.587 253.349 335.891ZM293.843 341.372 303.236 350.951 289.937 352.718Z" fill="#FFFFFF"/></g></svg>