<svg width="315" height="300" xmlns="http://www.w3.org/2000/svg" xmlns:xlink="http://www.w3.org/1999/xlink" overflow="hidden"><defs><filter id="fx0" x="-10%" y="-10%" width="120%" height="120%" filterUnits="userSpaceOnUse" primitiveUnits="userSpaceOnUse"><feComponentTransfer color-interpolation-filters="sRGB"><feFuncR type="discrete" tableValues="0 0"/><feFuncG type="discrete" tableValues="0 0"/><feFuncB type="discrete" tableValues="0 0"/><feFuncA type="linear" slope="0.4" intercept="0"/></feComponentTransfer><feGaussianBlur stdDeviation="0.723123 0.723123"/></filter><filter id="fx1" x="-10%" y="-10%" width="120%" height="120%" filterUnits="userSpaceOnUse" primitiveUnits="userSpaceOnUse"><feComponentTransfer color-interpolation-filters="sRGB"><feFuncR type="discrete" tableValues="0 0"/><feFuncG type="discrete" tableValues="0 0"/><feFuncB type="discrete" tableValues="0 0"/><feFuncA type="linear" slope="0.4" intercept="0"/></feComponentTransfer><feGaussianBlur stdDeviation="0.723123 0.723123"/></filter><clipPath id="clip2"><rect x="842" y="271" width="315" height="300"/></clipPath><clipPath id="clip3"><rect x="1047" y="294" width="96" height="96"/></clipPath><clipPath id="clip4"><rect x="1047" y="294" width="96" height="96"/></clipPath><clipPath id="clip5"><rect x="1047" y="294" width="96" height="96"/></clipPath><clipPath id="clip6"><path d="M860.048 448.168 934.008 455.296 926.88 529.256 852.92 522.128Z" fill-rule="evenodd" clip-rule="evenodd"/></clipPath><clipPath id="clip7"><path d="M860.048 448.168 934.008 455.296 926.88 529.256 852.92 522.128Z" fill-rule="evenodd" clip-rule="evenodd"/></clipPath><clipPath id="clip8"><path d="M860.048 448.168 934.008 455.296 926.88 529.256 852.92 522.128Z" fill-rule="evenodd" clip-rule="evenodd"/></clipPath><clipPath id="clip9"><rect x="30" y="33" width="25" height="28"/></clipPath><clipPath id="clip10"><rect x="0" y="0" width="86" height="95"/></clipPath><clipPath id="clip11"><path d="M960.795 491.976 1071.19 451.442 1095.57 517.843 985.175 558.377Z" fill-rule="evenodd" clip-rule="evenodd"/></clipPath><clipPath id="clip12"><path d="M960.795 491.976 1071.19 451.442 1095.57 517.843 985.175 558.377Z" fill-rule="evenodd" clip-rule="evenodd"/></clipPath><clipPath id="clip13"><path d="M960.795 491.976 1071.19 451.442 1095.57 517.843 985.175 558.377Z" fill-rule="evenodd" clip-rule="evenodd"/></clipPath><clipPath id="clip14"><path d="M960.795 491.976 1071.19 451.442 1095.57 517.843 985.175 558.377Z"/></clipPath><clipPath id="clip15"><rect x="26" y="23" width="94" height="31"/></clipPath><clipPath id="clip16"><rect x="0" y="0" width="144" height="87"/></clipPath></defs><g clip-path="url(#clip2)" transform="translate(-842 -271)"><g clip-path="url(#clip3)"><g clip-path="url(#clip4)"><g clip-path="url(#clip5)"><path d="M1102.33 333.17 1103.18 330.65 1101.26 328.73 1098.74 329.58C1098.08 329.211 1097.39 328.925 1096.66 328.73L1095.48 326.38 1092.8 326.38 1091.61 328.74C1090.88 328.937 1090.18 329.223 1089.52 329.59L1087 328.74 1085.08 330.66 1085.88 333.18C1085.5 333.832 1085.2 334.531 1085 335.26L1082.64 336.44 1082.64 339.08 1085 340.27C1085.19 340.996 1085.48 341.695 1085.85 342.35L1085 344.87 1087 346.79 1089.52 345.93C1090.17 346.303 1090.87 346.591 1091.6 346.79L1092.78 349.14 1095.46 349.14 1096.65 346.83C1097.36 346.636 1098.05 346.357 1098.7 346L1101.21 346.86 1103.13 344.93 1102.28 342.42C1102.66 341.76 1102.97 341.059 1103.19 340.33L1105.54 339.15 1105.54 336.44 1103.18 335.25C1102.99 334.522 1102.7 333.823 1102.33 333.17ZM1094.13 341.8C1091.92 341.8 1090.13 340.009 1090.13 337.8 1090.13 335.591 1091.92 333.8 1094.13 333.8 1096.33 333.832 1098.1 335.604 1098.13 337.8 1098.13 340.009 1096.34 341.8 1094.13 341.8Z" fill="#FFD966"/><path d="M1102.72 368.79 1085.51 368.79C1083.92 368.884 1082.7 370.252 1082.79 371.845 1082.88 373.307 1084.05 374.474 1085.51 374.56L1102.72 374.56C1104.31 374.466 1105.53 373.098 1105.44 371.505 1105.35 370.043 1104.18 368.876 1102.72 368.79Z" fill="#FFD966"/><path d="M1094.12 384.33C1097.39 384.325 1100.1 381.815 1100.36 378.56L1087.87 378.56C1088.14 381.816 1090.85 384.325 1094.12 384.33Z" fill="#FFD966"/><path d="M1119.09 338.47 1119.09 337.61C1118.84 323.96 1107.74 313.004 1094.09 312.92L1094.09 312.92C1080.44 313.004 1069.34 323.96 1069.09 337.61L1069.09 338.47C1069.18 341.43 1069.77 344.354 1070.83 347.12 1071.84 349.729 1073.31 352.137 1075.17 354.23 1077.46 356.72 1079.96 361.57 1081.02 363.73 1081.34 364.383 1082.01 364.794 1082.74 364.79L1105.44 364.79C1106.17 364.794 1106.84 364.383 1107.16 363.73 1108.22 361.57 1110.72 356.73 1113.01 354.23 1114.87 352.137 1116.34 349.729 1117.35 347.12 1118.41 344.354 1119 341.43 1119.09 338.47ZM1113.33 338.38C1113.26 340.678 1112.81 342.948 1112 345.1 1111.24 347.038 1110.14 348.825 1108.76 350.38 1106.54 353.022 1104.64 355.915 1103.09 359L1085.09 359C1083.56 355.907 1081.67 353.004 1079.47 350.35 1078.09 348.795 1076.99 347.008 1076.23 345.07 1075.4 342.921 1074.94 340.651 1074.85 338.35L1074.85 337.63C1075.03 327.13 1083.56 318.694 1094.06 318.63L1094.06 318.63C1104.56 318.694 1113.09 327.13 1113.27 337.63Z" fill="#FFD966"/><path d="M1094.31 309C1095.41 309 1096.31 308.105 1096.31 307L1096.31 300C1096.31 298.895 1095.41 298 1094.31 298 1093.21 298 1092.31 298.895 1092.31 300L1092.31 307C1092.31 308.105 1093.21 309 1094.31 309Z" fill="#FFD966"/><path d="M1070.58 317.79C1071.36 318.565 1072.62 318.565 1073.4 317.79 1074.18 317.01 1074.18 315.75 1073.4 314.97L1068.45 310C1067.63 309.26 1066.37 309.324 1065.63 310.144 1064.94 310.908 1064.94 312.069 1065.63 312.83Z" fill="#FFD966"/><path d="M1116.66 318.76C1117.19 318.76 1117.7 318.548 1118.08 318.17L1123.02 313.17C1123.66 312.273 1123.46 311.023 1122.56 310.379 1121.85 309.871 1120.9 309.879 1120.2 310.4L1115.2 315.4C1114.42 316.18 1114.42 317.44 1115.2 318.22 1115.59 318.59 1116.12 318.785 1116.66 318.76Z" fill="#FFD966"/><path d="M1063.25 335.5 1056.25 335.5C1055.15 335.5 1054.25 336.395 1054.25 337.5 1054.25 338.605 1055.15 339.5 1056.25 339.5L1063.25 339.5C1064.35 339.5 1065.25 338.605 1065.25 337.5 1065.25 336.395 1064.35 335.5 1063.25 335.5Z" fill="#FFD966"/><path d="M1070.58 357.14 1065.63 362.14C1064.79 362.858 1064.69 364.121 1065.41 364.96 1066.13 365.799 1067.39 365.897 1068.23 365.178 1068.31 365.111 1068.38 365.038 1068.45 364.96L1073.4 359.96C1074.12 359.121 1074.02 357.858 1073.18 357.14 1072.43 356.499 1071.33 356.499 1070.58 357.14Z" fill="#FFD966"/><path d="M1118.08 356.76C1117.34 355.94 1116.08 355.876 1115.26 356.616 1114.44 357.356 1114.37 358.621 1115.11 359.441 1115.16 359.489 1115.2 359.536 1115.25 359.58L1120.25 364.58C1120.96 365.429 1122.22 365.544 1123.07 364.837 1123.92 364.13 1124.03 362.869 1123.32 362.02 1123.23 361.905 1123.12 361.801 1123 361.71Z" fill="#FFD966"/><path d="M1132 335.43 1125 335.43C1123.9 335.43 1123 336.325 1123 337.43 1123 338.535 1123.9 339.43 1125 339.43L1132 339.43C1133.1 339.43 1134 338.535 1134 337.43 1134 336.325 1133.1 335.43 1132 335.43Z" fill="#FFD966"/></g></g></g><g clip-path="url(#clip6)"><g clip-path="url(#clip7)"><g clip-path="url(#clip8)"><path d="M878.473 474.826C878.391 475.677 877.635 476.3 876.784 476.218 875.933 476.136 875.309 475.38 875.391 474.529 875.473 473.678 876.23 473.054 877.081 473.136 877.932 473.218 878.555 473.975 878.473 474.826Z" fill="#FFFFFF"/><path d="M877.879 480.989C877.797 481.84 877.041 482.464 876.19 482.382 875.339 482.3 874.715 481.543 874.797 480.692 874.879 479.841 875.636 479.218 876.487 479.3 877.338 479.382 877.961 480.138 877.879 480.989Z" fill="#FFFFFF"/><path d="M875.094 477.611C875.012 478.461 874.256 479.085 873.405 479.003 872.554 478.921 871.931 478.164 872.013 477.314 872.095 476.463 872.851 475.839 873.702 475.921 874.553 476.003 875.176 476.76 875.094 477.611Z" fill="#FFFFFF"/><path d="M881.258 478.204C881.176 479.055 880.419 479.679 879.568 479.597 878.717 479.515 878.094 478.758 878.176 477.908 878.258 477.057 879.014 476.433 879.865 476.515 880.716 476.597 881.34 477.354 881.258 478.204Z" fill="#FFFFFF"/><path d="M900.342 473.823C900.26 474.674 899.503 475.297 898.652 475.215 897.801 475.133 897.178 474.377 897.26 473.526 897.342 472.675 898.098 472.052 898.949 472.134 899.8 472.216 900.424 472.972 900.342 473.823Z" fill="#FFFFFF"/><path d="M899.748 479.986C899.666 480.837 898.909 481.461 898.058 481.379 897.207 481.297 896.584 480.54 896.666 479.689 896.748 478.839 897.504 478.215 898.355 478.297 899.206 478.379 899.83 479.135 899.748 479.986Z" fill="#FFFFFF"/><path d="M896.963 476.608C896.881 477.459 896.125 478.082 895.274 478 894.423 477.918 893.799 477.162 893.881 476.311 893.963 475.46 894.72 474.836 895.571 474.918 896.422 475 897.045 475.757 896.963 476.608Z" fill="#FFFFFF"/><path d="M903.126 477.202C903.044 478.053 902.288 478.676 901.437 478.594 900.586 478.512 899.963 477.756 900.045 476.905 900.127 476.054 900.883 475.43 901.734 475.512 902.585 475.594 903.208 476.351 903.126 477.202Z" fill="#FFFFFF"/><path d="M919.881 488.925 914.813 493.102 908.65 492.508 907.016 509.457 913.179 510.051 917.356 515.119 921.979 515.565 924.503 489.371Z" fill="#FFFFFF"/><path d="M897.836 483.69C893.984 483.319 891.199 479.94 891.57 476.088 891.941 472.236 895.32 469.451 899.172 469.823 903.024 470.194 905.809 473.572 905.438 477.425 905.066 481.277 901.688 484.061 897.836 483.69ZM897.771 508.566C896.924 508.485 896.297 507.724 896.379 506.877 896.46 506.03 897.221 505.403 898.068 505.485 898.915 505.566 899.542 506.327 899.46 507.174 899.379 508.021 898.618 508.648 897.771 508.566ZM885.212 485.584C886.347 484.294 887.266 482.827 887.745 481.085 888.561 483.107 890.023 484.881 891.76 486.215L885.212 485.584ZM875.967 484.693C872.115 484.322 869.33 480.943 869.701 477.091 870.073 473.239 873.451 470.454 877.303 470.825 881.155 471.196 883.94 474.575 883.569 478.427 883.198 482.279 879.819 485.064 875.967 484.693ZM903.24 487.321C906.9 485.652 909.644 482.184 910.06 477.87 910.677 471.476 906.012 465.816 899.618 465.2 893.994 464.658 888.985 468.219 887.394 473.431 885.824 469.547 882.217 466.633 877.749 466.203 871.354 465.586 865.695 470.251 865.079 476.645 864.715 480.42 866.245 483.911 868.81 486.336L868.588 488.647 867.047 488.499 865.654 486.809 862.573 486.512 861.83 494.216 864.912 494.513 866.601 493.121 868.142 493.27 866.806 507.137C866.642 508.832 867.895 510.353 869.59 510.516L900.407 513.486C902.102 513.649 903.622 512.396 903.786 510.701L905.716 490.67C905.872 489.052 904.766 487.624 903.24 487.321Z" fill="#FFFFFF"/></g></g></g><g clip-path="url(#clip9)" filter="url(#fx0)" transform="translate(932 443)"><g clip-path="url(#clip10)"><path d="M14.9229 1.44531 14.9229-8.90674C14.9229-10.7856 14.6308-12.1346 14.0466-12.9536 13.4625-13.7726 12.5381-14.1821 11.2734-14.1821 9.91243-14.1821 8.84351-13.6582 8.06665-12.6104 7.28979-11.5625 6.90137-10.1413 6.90137-8.34668L6.90137 1.44531 2.74609 1.44531 2.74609-12.8091C2.74609-14.2423 2.69189-15.6636 2.5835-17.0728L6.54004-17.0728C6.67253-15.2661 6.73877-14.0737 6.73877-13.4956L6.81104-13.4956C7.52165-14.8807 8.34668-15.8864 9.28613-16.5127 10.2256-17.139 11.436-17.4521 12.9175-17.4521 14.9771-17.4521 16.5217-16.8439 17.5515-15.6274 18.5813-14.411 19.0962-12.5321 19.0962-9.99072L19.0962 1.44531Z" fill="#FFFFFF" transform="matrix(0.989283 0.146011 -0.146011 0.989283 30.9337 53)"/></g></g><text fill="#FFFFFF" font-family="DengXian,DengXian_MSFontService,sans-serif" font-weight="700" font-size="37" transform="matrix(0.989283 0.146011 -0.146011 0.989283 962.226 495)">n</text><path d="M1090 504 1119.14 521.586" stroke="#FFFFFF" stroke-width="2" stroke-miterlimit="8" fill="none" fill-rule="evenodd"/><path d="M1068 508 1113.6 535.779" stroke="#FFFFFF" stroke-width="2" stroke-miterlimit="8" fill="none" fill-rule="evenodd"/><path d="M1054 518 1094.28 541.298" stroke="#FFFFFF" stroke-width="2" stroke-miterlimit="8" fill="none" fill-rule="evenodd"/><path d="M1040 524 1066.12 539.109" stroke="#FFFFFF" stroke-width="2" stroke-miterlimit="8" fill="none" fill-rule="evenodd"/><path d="M1024 528 1039.82 537.15" stroke="#FFFFFF" stroke-width="2" stroke-miterlimit="8" fill="none" fill-rule="evenodd"/><path d="M1006 536 1034.22 552.003" stroke="#FFFFFF" stroke-width="2" stroke-miterlimit="8" fill="none" fill-rule="evenodd"/><path d="M925.272 501.019 956.975 505.365 956.432 509.328 924.728 504.981ZM968.864 506.995 972.827 507.539 972.283 511.502 968.32 510.958ZM984.716 509.169 988.678 509.712 988.135 513.675 984.172 513.132ZM1000.57 511.342 1022.86 514.399 1022.32 518.362 1000.02 515.305ZM1021.42 510.164 1032.5 517.739 1019.79 522.053Z" fill="#FFFFFF"/><path d="M0 0 192.12 81.8823" stroke="#FFFFFF" stroke-width="4" stroke-miterlimit="8" fill="none" fill-rule="evenodd" transform="matrix(-1 0 0 1 1141.12 474)"/><g clip-path="url(#clip11)"><g clip-path="url(#clip12)"><g clip-path="url(#clip13)"><g clip-path="url(#clip14)"><path d="M100.489 112.777C100.627 86.2166 122.186 64.797 148.642 64.9347 175.002 65.0721 196.299 86.5632 196.299 113.026" stroke="#FFFFFF" stroke-width="1.12278" stroke-miterlimit="8" fill="none" fill-rule="evenodd" transform="matrix(1.1302 -0.414964 0.344663 0.938727 826.222 473.21)"/><path d="M196.296 113.463C195.981 125.037 174.279 134.308 147.823 134.17 121.59 134.034 100.489 124.691 100.489 113.213" stroke="#FFFFFF" stroke-width="1.12278" stroke-miterlimit="8" fill="none" fill-rule="evenodd" transform="matrix(1.1302 -0.414964 0.344663 0.938727 826.222 473.21)"/><path d="M187.314 84.7855C187.058 94.1895 169.426 101.722 147.93 101.61 126.616 101.499 109.471 93.9084 109.471 84.5826" stroke="#FFFFFF" stroke-width="1.12278" stroke-miterlimit="8" fill="none" fill-rule="evenodd" transform="matrix(1.1302 -0.414964 0.344663 0.938727 826.222 473.21)"/><path d="M167.854 68.9651C167.725 73.6153 158.907 77.3399 148.16 77.2838 137.504 77.2284 128.932 73.475 128.932 68.8637" stroke="#FFFFFF" stroke-width="1.12278" stroke-miterlimit="8" fill="none" fill-rule="evenodd" transform="matrix(1.1302 -0.414964 0.344663 0.938727 826.222 473.21)"/><path d="M112.057 126.927C113.018 96.1307 128.353 68.9644 146.86 65.2686" stroke="#FFFFFF" stroke-width="1.12278" stroke-miterlimit="8" fill="none" fill-rule="evenodd" transform="matrix(1.1302 -0.414964 0.344663 0.938727 826.222 473.21)"/><path d="M138.471 133.668C136.197 107.059 141.005 79.84 150.544 65.3176" stroke="#FFFFFF" stroke-width="1.12278" stroke-miterlimit="8" fill="none" fill-rule="evenodd" transform="matrix(1.1302 -0.414964 0.344663 0.938727 826.222 473.21)"/><path d="M151.819 65.0556C169.515 70.1852 182.372 96.7393 182.072 127.54" stroke="#FFFFFF" stroke-width="1.12278" stroke-miterlimit="8" fill="none" fill-rule="evenodd" transform="matrix(1.1302 -0.414964 0.344663 0.938727 826.222 473.21)"/><path d="M100.492 114.274C100.804 102.596 122.504 93.2415 148.959 93.3792 175.194 93.5158 196.299 102.942 196.299 114.523" stroke="#FFFFFF" stroke-width="1.12278" stroke-miterlimit="8" stroke-dasharray="4.49111 3.36833" fill="none" fill-rule="evenodd" transform="matrix(1.1302 -0.414964 0.344663 0.938727 826.222 473.21)"/><path d="M146.148 113.026C146.148 112.096 146.902 111.342 147.832 111.342 148.762 111.342 149.517 112.096 149.517 113.026 149.517 113.956 148.762 114.71 147.832 114.71 146.902 114.71 146.148 113.956 146.148 113.026Z" stroke="#FFFFFF" stroke-width="0.499011" stroke-miterlimit="8" fill="#4472C4" fill-rule="evenodd" transform="matrix(1.1302 -0.414964 0.344663 0.938727 826.222 473.21)"/></g></g></g></g><path d="M1059.11 388.199C1060.71 382.438 1068.96 379.697 1077.55 382.076 1086.14 384.455 1091.81 391.053 1090.22 396.814 1088.62 402.575 1080.37 405.317 1071.78 402.938 1063.19 400.559 1057.52 393.96 1059.11 388.199Z" stroke="#FFFFFF" stroke-width="3" stroke-miterlimit="8" fill="none" fill-rule="evenodd"/><path d="M1.04361-1.07744 106.057 100.64 103.97 102.795-1.04361 1.07744ZM107.067 97.4413 110.401 106.935 100.805 103.906Z" fill="#FFFFFF" transform="matrix(0.892379 -0.451286 -0.451286 -0.892379 1031.04 515.995)"/><path d="M1071.73 391.956C1071.06 390.624 1071.46 389.066 1072.63 388.476 1073.79 387.886 1075.29 388.487 1075.96 389.819 1076.63 391.151 1076.23 392.709 1075.07 393.299 1073.9 393.889 1072.41 393.288 1071.73 391.956Z" stroke="#FFFFFF" stroke-width="3" stroke-miterlimit="8" fill="none" fill-rule="evenodd"/><path d="M0 0 82.7222 102.911" stroke="#FFFFFF" stroke-width="3" stroke-miterlimit="8" stroke-dasharray="12 9" fill="none" fill-rule="evenodd" transform="matrix(-0.892379 0.451286 0.451286 0.892379 1058.42 386.828)"/><path d="M0 0 106.594 78.1115" stroke="#FFFFFF" stroke-width="3" stroke-miterlimit="8" stroke-dasharray="12 9" fill="none" fill-rule="evenodd" transform="matrix(-0.892379 0.451286 0.451286 0.892379 1090.91 398.185)"/><path d="M80.1242 14.3898C98.6663 33.8003 98.9103 65.5308 80.6694 85.2617 71.0686 95.6468 57.6964 101.072 44.0353 100.126" stroke="#FFFFFF" stroke-width="4" stroke-miterlimit="8" fill="none" fill-rule="evenodd" transform="matrix(0.0506246 0.998718 0.998718 -0.0506246 908.359 318.112)"/><path d="M981 375 998.24 384.971" stroke="#FFFFFF" stroke-width="2" stroke-miterlimit="8" fill="none" fill-rule="evenodd"/><path d="M968 381 988.552 392.886" stroke="#FFFFFF" stroke-width="2" stroke-miterlimit="8" fill="none" fill-rule="evenodd"/><path d="M950 385 975.922 399.992" stroke="#FFFFFF" stroke-width="2" stroke-miterlimit="8" fill="none" fill-rule="evenodd"/><path d="M949 397 957.62 401.986" stroke="#FFFFFF" stroke-width="2" stroke-miterlimit="8" fill="none" fill-rule="evenodd"/><path d="M980.908 430.253C978.972 426.059 982.223 420.434 988.168 417.69 994.113 414.947 1000.5 416.123 1002.44 420.317 1004.37 424.512 1001.12 430.136 995.178 432.88 989.233 435.624 982.844 434.448 980.908 430.253Z" stroke="#FFFFFF" stroke-width="3" stroke-miterlimit="8" fill="none" fill-rule="evenodd"/><path d="M1.0706-1.05063 76.9168 76.2373 74.7756 78.3386-1.0706 1.05063ZM78.0076 73.0657 81.0995 82.6412 71.584 79.3694Z" fill="#FFFFFF" transform="matrix(0.389443 -0.921051 -0.921051 -0.389443 1029.02 516.571)"/><path d="M989.704 426.341C988.642 425.892 988.084 424.811 988.458 423.926 988.832 423.041 989.997 422.688 991.059 423.137 992.121 423.586 992.679 424.668 992.305 425.553 991.931 426.437 990.767 426.79 989.704 426.341Z" stroke="#FFFFFF" stroke-width="3" stroke-miterlimit="8" fill="none" fill-rule="evenodd"/><path d="M0 0 60.7669 79.531" stroke="#FFFFFF" stroke-width="3" stroke-miterlimit="8" stroke-dasharray="12 9" fill="none" fill-rule="evenodd" transform="matrix(-0.389443 0.921051 0.921051 0.389443 979.432 429.629)"/><path d="M0 0 78.3027 60.3657" stroke="#FFFFFF" stroke-width="3" stroke-miterlimit="8" stroke-dasharray="12 9" fill="none" fill-rule="evenodd" transform="matrix(-0.389443 0.921051 0.921051 0.389443 1003.91 420.941)"/><g clip-path="url(#clip15)" filter="url(#fx1)" transform="translate(841 270)"><g clip-path="url(#clip16)"><path d="M15.1216-17.2354C15.1216-18.4759 14.7091-19.3853 13.884-19.9634 13.059-20.5415 11.8034-20.8306 10.1172-20.8306L7.55176-20.8306 7.55176-13.333 10.1533-13.333C11.7793-13.333 13.0138-13.6672 13.8569-14.3357 14.7-15.0041 15.1216-15.9707 15.1216-17.2354ZM16.585-6.12451C16.585-7.49756 16.064-8.53638 15.0222-9.24097 13.9804-9.94556 12.52-10.2979 10.6411-10.2979L7.55176-10.2979 7.55176-1.73438 10.894-1.73438C12.8091-1.73437 14.2363-2.11076 15.1758-2.86353 16.1152-3.61629 16.585-4.70329 16.585-6.12451ZM21.0112-5.70898C21.0112-3.43262 20.1681-1.67114 18.4819-0.424561 16.7957 0.822021 14.4411 1.44531 11.418 1.44531L3.16162 1.44531 3.16162-24.0103 10.334-24.0103C16.4645-24.0103 19.5298-21.9447 19.5298-17.8135 19.5298-16.2959 19.1082-15.0252 18.2651-14.0015 17.422-12.9777 16.2297-12.2912 14.688-11.9419 16.6753-11.7371 18.226-11.0837 19.3401-9.98169 20.4542-8.87964 21.0112-7.4554 21.0112-5.70898ZM31.3525-11.9419 23.2046-24.0103 27.8296-24.0103 33.9722-14.4712 40.0605-24.0103 44.7036-24.0103 36.8267-11.9419 45.4443 1.44531 40.8013 1.44531 33.9722-9.1958 27.0889 1.44531 22.4639 1.44531ZM65.9191-11.4902C65.9191-17.5124 63.0466-20.5234 57.3014-20.5234L53.2184-20.5234 53.2184-2.0415 57.8615-2.0415C60.4028-2.0415 62.3811-2.86654 63.7963-4.5166 65.2115-6.16667 65.9191-8.49121 65.9191-11.4902ZM70.3454-11.4902C70.3454-8.84049 69.8516-6.54004 68.8639-4.58887 67.8763-2.6377 66.4641-1.14421 64.6274-0.108398 62.7906 0.927409 60.6558 1.44531 58.2228 1.44531L48.8464 1.44531 48.8464-24.0103 57.3918-24.0103C61.6073-24.0103 64.8201-22.9443 67.0302-20.8125 69.2403-18.6807 70.3454-15.5732 70.3454-11.4902ZM80.0518 1.44531 75.6616 1.44531 75.6616-24.0103 89.8618-24.0103 89.8618-20.4873 80.0518-20.4873 80.0518-12.7729 89.4463-12.7729 89.4463-9.3584 80.0518-9.3584Z" fill="#FFFFFF" transform="translate(26.2047 50)"/></g></g><text fill="#FFFFFF" font-family="DengXian,DengXian_MSFontService,sans-serif" font-weight="700" font-size="37" transform="translate(866.366 320)">BXDF</text></g></svg>