<svg width="310" height="297" xmlns="http://www.w3.org/2000/svg" xmlns:xlink="http://www.w3.org/1999/xlink" overflow="hidden"><defs><filter id="fx0" x="-10%" y="-10%" width="120%" height="120%" filterUnits="userSpaceOnUse" primitiveUnits="userSpaceOnUse"><feComponentTransfer color-interpolation-filters="sRGB"><feFuncR type="discrete" tableValues="0 0"/><feFuncG type="discrete" tableValues="0 0"/><feFuncB type="discrete" tableValues="0 0"/><feFuncA type="linear" slope="0.4" intercept="0"/></feComponentTransfer><feGaussianBlur stdDeviation="0.601229 0.601229"/></filter><clipPath id="clip1"><rect x="485" y="264" width="310" height="297"/></clipPath><clipPath id="clip2"><rect x="686" y="284" width="96" height="96"/></clipPath><clipPath id="clip3"><rect x="686" y="284" width="96" height="96"/></clipPath><clipPath id="clip4"><rect x="686" y="284" width="96" height="96"/></clipPath><clipPath id="clip5"><path d="M498.254 437.768 572.215 444.896 565.087 518.856 491.126 511.729Z" fill-rule="evenodd" clip-rule="evenodd"/></clipPath><clipPath id="clip6"><path d="M498.254 437.768 572.215 444.896 565.087 518.856 491.126 511.729Z" fill-rule="evenodd" clip-rule="evenodd"/></clipPath><clipPath id="clip7"><path d="M498.254 437.768 572.215 444.896 565.087 518.856 491.126 511.729Z" fill-rule="evenodd" clip-rule="evenodd"/></clipPath><clipPath id="clip8"><rect x="21" y="23" width="67" height="23"/></clipPath><clipPath id="clip9"><rect x="0" y="0" width="109" height="70"/></clipPath></defs><g clip-path="url(#clip1)" transform="translate(-485 -264)"><g clip-path="url(#clip2)"><g clip-path="url(#clip3)"><g clip-path="url(#clip4)"><path d="M741.33 323.17 742.18 320.65 740.26 318.73 737.74 319.58C737.085 319.211 736.386 318.925 735.66 318.73L734.48 316.38 731.8 316.38 730.61 318.74C729.881 318.937 729.179 319.223 728.52 319.59L726 318.74 724.08 320.66 724.88 323.18C724.496 323.832 724.2 324.531 724 325.26L721.64 326.44 721.64 329.08 724 330.27C724.195 330.996 724.48 331.695 724.85 332.35L724 334.87 726 336.79 728.52 335.93C729.175 336.303 729.873 336.591 730.6 336.79L731.78 339.14 734.46 339.14 735.65 336.83C736.364 336.636 737.052 336.357 737.7 336L740.21 336.86 742.13 334.93 741.28 332.42C741.662 331.76 741.967 331.059 742.19 330.33L744.54 329.15 744.54 326.44 742.18 325.25C741.989 324.522 741.703 323.823 741.33 323.17ZM733.13 331.8C730.921 331.8 729.13 330.009 729.13 327.8 729.13 325.591 730.921 323.8 733.13 323.8 735.326 323.832 737.098 325.604 737.13 327.8 737.13 330.009 735.339 331.8 733.13 331.8Z" fill="#FFD966"/><path d="M741.72 358.79 724.51 358.79C722.917 358.884 721.701 360.252 721.795 361.845 721.881 363.307 723.048 364.474 724.51 364.56L741.72 364.56C743.313 364.466 744.529 363.098 744.435 361.505 744.349 360.043 743.182 358.876 741.72 358.79Z" fill="#FFD966"/><path d="M733.12 374.33C736.385 374.325 739.1 371.815 739.36 368.56L726.87 368.56C727.135 371.816 729.853 374.325 733.12 374.33Z" fill="#FFD966"/><path d="M758.09 328.47 758.09 327.61C757.835 313.96 746.742 303.004 733.09 302.92L733.09 302.92C719.438 303.004 708.345 313.96 708.09 327.61L708.09 328.47C708.181 331.43 708.77 334.354 709.83 337.12 710.842 339.729 712.312 342.137 714.17 344.23 716.46 346.72 718.96 351.57 720.02 353.73 720.344 354.383 721.011 354.794 721.74 354.79L744.44 354.79C745.169 354.794 745.836 354.383 746.16 353.73 747.22 351.57 749.72 346.73 752.01 344.23 753.868 342.137 755.338 339.729 756.35 337.12 757.41 334.354 757.999 331.43 758.09 328.47ZM752.33 328.38C752.259 330.678 751.81 332.948 751 335.1 750.241 337.038 749.144 338.825 747.76 340.38 745.54 343.022 743.637 345.915 742.09 349L724.09 349C722.56 345.907 720.674 343.004 718.47 340.35 717.086 338.795 715.989 337.008 715.23 335.07 714.403 332.921 713.937 330.651 713.85 328.35L713.85 327.63C714.029 317.13 722.559 308.694 733.06 308.63L733.06 308.63C743.561 308.694 752.091 317.13 752.27 327.63Z" fill="#FFD966"/><path d="M733.31 299C734.415 299 735.31 298.105 735.31 297L735.31 290C735.31 288.895 734.415 288 733.31 288 732.205 288 731.31 288.895 731.31 290L731.31 297C731.31 298.105 732.205 299 733.31 299Z" fill="#FFD966"/><path d="M709.58 307.79C710.36 308.565 711.62 308.565 712.4 307.79 713.175 307.01 713.175 305.75 712.4 304.97L707.45 300C706.63 299.26 705.365 299.324 704.625 300.144 703.936 300.908 703.938 302.069 704.63 302.83Z" fill="#FFD966"/><path d="M755.66 308.76C756.193 308.76 756.704 308.548 757.08 308.17L762.02 303.17C762.664 302.273 762.459 301.023 761.562 300.379 760.854 299.871 759.899 299.879 759.2 300.4L754.2 305.4C753.425 306.18 753.425 307.44 754.2 308.22 754.594 308.59 755.12 308.785 755.66 308.76Z" fill="#FFD966"/><path d="M702.25 325.5 695.25 325.5C694.145 325.5 693.25 326.395 693.25 327.5 693.25 328.605 694.145 329.5 695.25 329.5L702.25 329.5C703.355 329.5 704.25 328.605 704.25 327.5 704.25 326.395 703.355 325.5 702.25 325.5Z" fill="#FFD966"/><path d="M709.58 347.14 704.63 352.14C703.791 352.858 703.693 354.121 704.412 354.96 705.13 355.799 706.393 355.897 707.232 355.178 707.31 355.111 707.383 355.038 707.45 354.96L712.4 349.96C713.119 349.121 713.021 347.858 712.182 347.14 711.433 346.499 710.329 346.499 709.58 347.14Z" fill="#FFD966"/><path d="M757.08 346.76C756.34 345.94 755.075 345.876 754.255 346.616 753.435 347.356 753.371 348.621 754.111 349.441 754.155 349.489 754.201 349.536 754.25 349.58L759.25 354.58C759.957 355.429 761.218 355.544 762.067 354.837 762.916 354.13 763.03 352.869 762.323 352.02 762.227 351.905 762.119 351.801 762 351.71Z" fill="#FFD966"/><path d="M771 325.43 764 325.43C762.895 325.43 762 326.325 762 327.43 762 328.535 762.895 329.43 764 329.43L771 329.43C772.105 329.43 773 328.535 773 327.43 773 326.325 772.105 325.43 771 325.43Z" fill="#FFD966"/></g></g></g><g clip-path="url(#clip5)"><g clip-path="url(#clip6)"><g clip-path="url(#clip7)"><path d="M516.68 464.426C516.598 465.277 515.841 465.901 514.99 465.819 514.139 465.737 513.516 464.98 513.598 464.129 513.68 463.278 514.436 462.655 515.287 462.737 516.138 462.819 516.762 463.575 516.68 464.426Z" fill="#FFFFFF"/><path d="M516.086 470.59C516.004 471.441 515.247 472.064 514.396 471.982 513.545 471.9 512.922 471.144 513.004 470.293 513.086 469.442 513.842 468.818 514.693 468.9 515.544 468.982 516.168 469.739 516.086 470.59Z" fill="#FFFFFF"/><path d="M513.301 467.211C513.219 468.062 512.463 468.685 511.612 468.603 510.761 468.521 510.137 467.765 510.219 466.914 510.301 466.063 511.058 465.44 511.909 465.522 512.76 465.604 513.383 466.36 513.301 467.211Z" fill="#FFFFFF"/><path d="M519.464 467.805C519.382 468.656 518.626 469.279 517.775 469.197 516.924 469.115 516.301 468.359 516.383 467.508 516.465 466.657 517.221 466.034 518.072 466.116 518.923 466.198 519.546 466.954 519.464 467.805Z" fill="#FFFFFF"/><path d="M538.548 463.424C538.466 464.275 537.71 464.898 536.859 464.816 536.008 464.734 535.385 463.978 535.467 463.127 535.549 462.276 536.305 461.652 537.156 461.734 538.007 461.816 538.63 462.573 538.548 463.424Z" fill="#FFFFFF"/><path d="M537.954 469.587C537.872 470.438 537.116 471.061 536.265 470.979 535.414 470.897 534.791 470.141 534.873 469.29 534.955 468.439 535.711 467.816 536.562 467.898 537.413 467.98 538.036 468.736 537.954 469.587Z" fill="#FFFFFF"/><path d="M535.17 466.208C535.088 467.059 534.331 467.683 533.48 467.601 532.629 467.519 532.006 466.762 532.088 465.911 532.17 465.06 532.926 464.437 533.777 464.519 534.628 464.601 535.252 465.357 535.17 466.208Z" fill="#FFFFFF"/><path d="M541.333 466.802C541.251 467.653 540.495 468.277 539.644 468.195 538.793 468.113 538.169 467.356 538.251 466.505 538.333 465.654 539.09 465.031 539.941 465.113 540.792 465.195 541.415 465.951 541.333 466.802Z" fill="#FFFFFF"/><path d="M558.088 478.525 553.02 482.702 546.856 482.108 545.223 499.058 551.386 499.652 555.563 504.72 560.186 505.165 562.71 478.971Z" fill="#FFFFFF"/><path d="M536.042 473.291C532.19 472.919 529.406 469.541 529.777 465.688 530.148 461.836 533.527 459.052 537.379 459.423 541.231 459.794 544.016 463.173 543.644 467.025 543.273 470.877 539.894 473.662 536.042 473.291ZM535.978 498.167C535.13 498.085 534.504 497.325 534.585 496.477 534.667 495.63 535.427 495.003 536.275 495.085 537.122 495.167 537.749 495.927 537.667 496.774 537.585 497.622 536.825 498.248 535.978 498.167ZM523.419 475.184C524.554 473.894 525.473 472.427 525.952 470.685 526.768 472.708 528.229 474.482 529.967 475.815L523.419 475.184ZM514.173 474.293C510.321 473.922 507.537 470.543 507.908 466.691 508.279 462.839 511.658 460.054 515.51 460.426 519.362 460.797 522.147 464.176 521.776 468.028 521.404 471.88 518.026 474.664 514.173 474.293ZM541.446 476.922C545.106 475.253 547.851 471.785 548.267 467.47 548.883 461.076 544.219 455.417 537.824 454.8 532.2 454.258 527.192 457.819 525.601 463.031 524.031 459.147 520.424 456.234 515.955 455.803 509.561 455.187 503.902 459.851 503.285 466.246 502.922 470.021 504.451 473.512 507.017 475.936L506.794 478.248 505.253 478.099 503.861 476.41 500.779 476.113 500.037 483.817 503.118 484.114 504.808 482.722 506.349 482.87 505.012 496.738C504.849 498.433 506.102 499.953 507.797 500.116L538.614 503.086C540.309 503.25 541.829 501.997 541.992 500.302L543.923 480.271C544.079 478.653 542.972 477.224 541.446 476.922Z" fill="#FFFFFF"/></g></g></g><g clip-path="url(#clip8)" filter="url(#fx0)" transform="translate(554 442)"><g clip-path="url(#clip9)"><path d="M10.8896 1.05469 10.8896-6.49951C10.8896-7.8706 10.6765-8.85498 10.2502-9.45264 9.82397-10.0503 9.14941-10.3491 8.22656-10.3491 7.2334-10.3491 6.45337-9.9668 5.88647-9.20215 5.31958-8.4375 5.03613-7.40039 5.03613-6.09082L5.03613 1.05469 2.00391 1.05469 2.00391-9.34717C2.00391-10.3931 1.96436-11.4302 1.88525-12.4585L4.77246-12.4585C4.86914-11.1401 4.91748-10.27 4.91748-9.84814L4.97021-9.84814C5.48877-10.8589 6.09082-11.5928 6.77637-12.0498 7.46191-12.5068 8.34521-12.7354 9.42627-12.7354 10.9292-12.7354 12.0564-12.2915 12.8079-11.4038 13.5593-10.5161 13.9351-9.14502 13.9351-7.29053L13.9351 1.05469ZM18.0708-0.791016 18.0708-3.28271 29.4351-7.84424 18.0708-12.4058 18.0708-14.9106 31.6631-9.57129 31.6631-6.11719ZM36.5708-0.791016 36.5708-3.28271 47.9351-7.84424 36.5708-12.4058 36.5708-14.9106 50.1631-9.57129 50.1631-6.11719ZM54.3984-1.38428 59.2104-1.38428 59.2104-14.7524 54.8599-11.9707 54.8599-14.4888 59.395-17.521 62.2295-17.521 62.2295-1.38428 66.3296-1.38428 66.3296 1.05469 54.3984 1.05469Z" fill="#FFFFFF" transform="matrix(0.996479 0.0838474 -0.0838474 0.996479 20.512 38)"/></g></g><text fill="#FFFFFF" font-family="DengXian,DengXian_MSFontService,sans-serif" font-weight="700" font-size="27" transform="matrix(0.996479 0.0838474 -0.0838474 0.996479 573.851 479)">n&gt;&gt;1</text><path d="M728 494 757.138 511.586" stroke="#FFFFFF" stroke-width="2" stroke-miterlimit="8" fill="none" fill-rule="evenodd"/><path d="M707 498 752.597 525.779" stroke="#FFFFFF" stroke-width="2" stroke-miterlimit="8" fill="none" fill-rule="evenodd"/><path d="M692 507 732.282 530.298" stroke="#FFFFFF" stroke-width="2" stroke-miterlimit="8" fill="none" fill-rule="evenodd"/><path d="M678 514 704.123 529.109" stroke="#FFFFFF" stroke-width="2" stroke-miterlimit="8" fill="none" fill-rule="evenodd"/><path d="M662 517 677.821 526.15" stroke="#FFFFFF" stroke-width="2" stroke-miterlimit="8" fill="none" fill-rule="evenodd"/><path d="M644 525 672.223 541.003" stroke="#FFFFFF" stroke-width="2" stroke-miterlimit="8" fill="none" fill-rule="evenodd"/><path d="M564.188 490.009 596.046 493.02 595.67 497.003 563.812 493.991ZM607.993 494.15 611.975 494.526 611.599 498.508 607.617 498.132ZM623.922 495.655 627.904 496.032 627.528 500.014 623.546 499.638ZM639.851 497.161 663.034 499.352 662.657 503.335 639.474 501.143ZM661.419 495.182 672.801 502.285 660.29 507.129Z" fill="#FFFFFF"/><path d="M0 0 102.245 44.9803" stroke="#FFFFFF" stroke-width="4" stroke-miterlimit="8" fill="none" fill-rule="evenodd" transform="matrix(-1 0 0 1 733.245 477)"/><path d="M1.91363-0.581406 42.647 133.488 38.8197 134.65-1.91363 0.581406ZM45.8929 130.411 43.6404 143.637 34.4111 133.9Z" fill="#FFFFFF" transform="matrix(1 0 0 -1 672 502.637)"/><path d="M1.51322-1.30773 50.9851 55.9381 47.9587 58.5536-1.51322 1.30773ZM52.7038 51.8094 56.0105 64.812 43.6245 59.6558Z" fill="#FFFFFF" transform="matrix(1 0 0 -1 672 502.812)"/><path d="M670.35 497.888 660.883 390.137 664.867 389.787 674.334 497.538ZM657.073 392.479 662 380 669.027 391.429Z" fill="#FFFFFF"/><path d="M1.97601-0.308825 13.4634 73.193 9.51136 73.8106-1.97601 0.308825ZM17.1066 70.5993 13.0315 83.3818 5.25051 72.4522Z" fill="#FFFFFF" transform="matrix(1 0 0 -1 672 502.382)"/><path d="M516 346.5C516 318.057 539.057 295 567.5 295 595.943 295 619 318.057 619 346.5 619 374.943 595.943 398 567.5 398 539.057 398 516 374.943 516 346.5Z" stroke="#FFFFFF" stroke-width="2" stroke-linejoin="round" stroke-miterlimit="10" fill="none" fill-rule="evenodd"/><path d="M525 319 610.693 319" stroke="#FFFFFF" stroke-width="2" stroke-miterlimit="8" fill="none" fill-rule="evenodd"/><path d="M525 376 610.693 376" stroke="#FFFFFF" stroke-width="2" stroke-miterlimit="8" fill="none" fill-rule="evenodd"/><path d="M538 305 538 388.651" stroke="#FFFFFF" stroke-width="2" stroke-miterlimit="8" fill="none" fill-rule="evenodd"/><path d="M598 305 598 388.651" stroke="#FFFFFF" stroke-width="2" stroke-miterlimit="8" fill="none" fill-rule="evenodd"/><path d="M545 329.5C545 327.567 546.567 326 548.5 326 550.433 326 552 327.567 552 329.5 552 331.433 550.433 333 548.5 333 546.567 333 545 331.433 545 329.5Z" fill="#FFFFFF" fill-rule="evenodd"/><path d="M566 338.5C566 336.567 567.791 335 570 335 572.209 335 574 336.567 574 338.5 574 340.433 572.209 342 570 342 567.791 342 566 340.433 566 338.5Z" fill="#FFFFFF" fill-rule="evenodd"/><path d="M557 352C557 349.791 558.567 348 560.5 348 562.433 348 564 349.791 564 352 564 354.209 562.433 356 560.5 356 558.567 356 557 354.209 557 352Z" fill="#FFFFFF" fill-rule="evenodd"/><path d="M582 357.5C582 355.567 583.567 354 585.5 354 587.433 354 589 355.567 589 357.5 589 359.433 587.433 361 585.5 361 583.567 361 582 359.433 582 357.5Z" fill="#FFFFFF" fill-rule="evenodd"/><path d="M547 368.5C547 366.567 548.567 365 550.5 365 552.433 365 554 366.567 554 368.5 554 370.433 552.433 372 550.5 372 548.567 372 547 370.433 547 368.5Z" fill="#FFFFFF" fill-rule="evenodd"/><path d="M571 360.5C571 358.567 572.567 357 574.5 357 576.433 357 578 358.567 578 360.5 578 362.433 576.433 364 574.5 364 572.567 364 571 362.433 571 360.5Z" fill="#FFFFFF" fill-rule="evenodd"/><path d="M583 326.5C583 324.567 584.567 323 586.5 323 588.433 323 590 324.567 590 326.5 590 328.433 588.433 330 586.5 330 584.567 330 583 328.433 583 326.5Z" fill="#FFFFFF" fill-rule="evenodd"/><path d="M523 336.5C523 334.567 524.567 333 526.5 333 528.433 333 530 334.567 530 336.5 530 338.433 528.433 340 526.5 340 524.567 340 523 338.433 523 336.5Z" fill="#FFFFFF" fill-rule="evenodd"/><path d="M529 369.5C529 367.567 530.567 366 532.5 366 534.433 366 536 367.567 536 369.5 536 371.433 534.433 373 532.5 373 530.567 373 529 371.433 529 369.5Z" fill="#FFFFFF" fill-rule="evenodd"/><path d="M546 305.5C546 303.567 547.567 302 549.5 302 551.433 302 553 303.567 553 305.5 553 307.433 551.433 309 549.5 309 547.567 309 546 307.433 546 305.5Z" fill="#FFFFFF" fill-rule="evenodd"/><path d="M571 312.5C571 310.567 572.567 309 574.5 309 576.433 309 578 310.567 578 312.5 578 314.433 576.433 316 574.5 316 572.567 316 571 314.433 571 312.5Z" fill="#FFFFFF" fill-rule="evenodd"/><path d="M552 387C552 384.791 553.567 383 555.5 383 557.433 383 559 384.791 559 387 559 389.209 557.433 391 555.5 391 553.567 391 552 389.209 552 387Z" fill="#FFFFFF" fill-rule="evenodd"/><path d="M605 335.5C605 333.567 606.791 332 609 332 611.209 332 613 333.567 613 335.5 613 337.433 611.209 339 609 339 606.791 339 605 337.433 605 335.5Z" fill="#FFFFFF" fill-rule="evenodd"/><path d="M601 367.5C601 365.567 602.567 364 604.5 364 606.433 364 608 365.567 608 367.5 608 369.433 606.433 371 604.5 371 602.567 371 601 369.433 601 367.5Z" fill="#FFFFFF" fill-rule="evenodd"/><path d="M584 381.5C584 379.567 585.567 378 587.5 378 589.433 378 591 379.567 591 381.5 591 383.433 589.433 385 587.5 385 585.567 385 584 383.433 584 381.5Z" fill="#FFFFFF" fill-rule="evenodd"/><path d="M578 305.5C578 303.567 579.791 302 582 302 584.209 302 586 303.567 586 305.5 586 307.433 584.209 309 582 309 579.791 309 578 307.433 578 305.5Z" fill="#FFFFFF" fill-rule="evenodd"/></g></svg>