<svg width="317" height="297" xmlns="http://www.w3.org/2000/svg" xmlns:xlink="http://www.w3.org/1999/xlink" overflow="hidden"><defs><filter id="fx0" x="-10%" y="-10%" width="120%" height="120%" filterUnits="userSpaceOnUse" primitiveUnits="userSpaceOnUse"><feComponentTransfer color-interpolation-filters="sRGB"><feFuncR type="discrete" tableValues="0 0"/><feFuncG type="discrete" tableValues="0 0"/><feFuncB type="discrete" tableValues="0 0"/><feFuncA type="linear" slope="0.4" intercept="0"/></feComponentTransfer><feGaussianBlur stdDeviation="0.723123 0.723123"/></filter><clipPath id="clip1"><rect x="97" y="254" width="317" height="297"/></clipPath><clipPath id="clip2"><rect x="317" y="268" width="96" height="96"/></clipPath><clipPath id="clip3"><rect x="317" y="268" width="96" height="96"/></clipPath><clipPath id="clip4"><rect x="317" y="268" width="96" height="96"/></clipPath><clipPath id="clip5"><path d="M104.591 469.816 176.395 450.706 195.505 522.509 123.701 541.619Z" fill-rule="evenodd" clip-rule="evenodd"/></clipPath><clipPath id="clip6"><path d="M104.591 469.816 176.395 450.706 195.505 522.509 123.701 541.619Z" fill-rule="evenodd" clip-rule="evenodd"/></clipPath><clipPath id="clip7"><path d="M104.591 469.816 176.395 450.706 195.505 522.509 123.701 541.619Z" fill-rule="evenodd" clip-rule="evenodd"/></clipPath><clipPath id="clip8"><rect x="173" y="347" width="172" height="136"/></clipPath><clipPath id="clip9"><rect x="173" y="347" width="172" height="136"/></clipPath><clipPath id="clip10"><rect x="173" y="347" width="172" height="136"/></clipPath><clipPath id="clip11"><rect x="26" y="22" width="153" height="32"/></clipPath><clipPath id="clip12"><rect x="0" y="0" width="203" height="87"/></clipPath><clipPath id="clip13"><rect x="327" y="464" width="75" height="76"/></clipPath><clipPath id="clip14"><rect x="327" y="464" width="75" height="76"/></clipPath><clipPath id="clip15"><rect x="327" y="464" width="75" height="76"/></clipPath></defs><g clip-path="url(#clip1)" transform="translate(-97 -254)"><g clip-path="url(#clip2)"><g clip-path="url(#clip3)"><g clip-path="url(#clip4)"><path d="M372.33 307.17 373.18 304.65 371.26 302.73 368.74 303.58C368.085 303.211 367.386 302.925 366.66 302.73L365.48 300.38 362.8 300.38 361.61 302.74C360.881 302.937 360.179 303.223 359.52 303.59L357 302.74 355.08 304.66 355.88 307.18C355.496 307.832 355.2 308.531 355 309.26L352.64 310.44 352.64 313.08 355 314.27C355.194 314.996 355.48 315.695 355.85 316.35L355 318.87 357 320.79 359.52 319.93C360.175 320.303 360.873 320.591 361.6 320.79L362.78 323.14 365.46 323.14 366.65 320.83C367.364 320.636 368.052 320.357 368.7 320L371.21 320.86 373.13 318.93 372.28 316.42C372.662 315.76 372.967 315.059 373.19 314.33L375.54 313.15 375.54 310.44 373.18 309.25C372.989 308.522 372.703 307.823 372.33 307.17ZM364.13 315.8C361.921 315.8 360.13 314.009 360.13 311.8 360.13 309.591 361.921 307.8 364.13 307.8 366.326 307.832 368.098 309.604 368.13 311.8 368.13 314.009 366.339 315.8 364.13 315.8Z" fill="#FFD966"/><path d="M372.72 342.79 355.51 342.79C353.917 342.884 352.701 344.252 352.795 345.845 352.881 347.307 354.048 348.474 355.51 348.56L372.72 348.56C374.313 348.466 375.529 347.098 375.435 345.505 375.349 344.043 374.182 342.876 372.72 342.79Z" fill="#FFD966"/><path d="M364.12 358.33C367.385 358.325 370.1 355.815 370.36 352.56L357.87 352.56C358.135 355.816 360.853 358.325 364.12 358.33Z" fill="#FFD966"/><path d="M389.09 312.47 389.09 311.61C388.835 297.96 377.742 287.004 364.09 286.92L364.09 286.92C350.438 287.004 339.345 297.96 339.09 311.61L339.09 312.47C339.181 315.43 339.77 318.354 340.83 321.12 341.842 323.729 343.312 326.137 345.17 328.23 347.46 330.72 349.96 335.57 351.02 337.73 351.344 338.383 352.011 338.794 352.74 338.79L375.44 338.79C376.169 338.794 376.836 338.383 377.16 337.73 378.22 335.57 380.72 330.73 383.01 328.23 384.868 326.137 386.338 323.729 387.35 321.12 388.41 318.354 388.999 315.43 389.09 312.47ZM383.33 312.38C383.259 314.678 382.81 316.948 382 319.1 381.241 321.038 380.144 322.825 378.76 324.38 376.54 327.022 374.637 329.915 373.09 333L355.09 333C353.56 329.907 351.674 327.004 349.47 324.35 348.086 322.795 346.989 321.008 346.23 319.07 345.403 316.921 344.937 314.651 344.85 312.35L344.85 311.63C345.029 301.13 353.559 292.694 364.06 292.63L364.06 292.63C374.561 292.694 383.091 301.13 383.27 311.63Z" fill="#FFD966"/><path d="M364.31 283C365.415 283 366.31 282.105 366.31 281L366.31 274C366.31 272.895 365.415 272 364.31 272 363.205 272 362.31 272.895 362.31 274L362.31 281C362.31 282.105 363.205 283 364.31 283Z" fill="#FFD966"/><path d="M340.58 291.79C341.36 292.565 342.62 292.565 343.4 291.79 344.175 291.01 344.175 289.75 343.4 288.97L338.45 284C337.63 283.26 336.366 283.324 335.625 284.144 334.936 284.908 334.938 286.069 335.63 286.83Z" fill="#FFD966"/><path d="M386.66 292.76C387.193 292.76 387.704 292.548 388.08 292.17L393.02 287.17C393.664 286.273 393.459 285.023 392.562 284.379 391.854 283.871 390.899 283.879 390.2 284.4L385.2 289.4C384.425 290.18 384.425 291.44 385.2 292.22 385.594 292.59 386.12 292.785 386.66 292.76Z" fill="#FFD966"/><path d="M333.25 309.5 326.25 309.5C325.145 309.5 324.25 310.395 324.25 311.5 324.25 312.605 325.145 313.5 326.25 313.5L333.25 313.5C334.355 313.5 335.25 312.605 335.25 311.5 335.25 310.395 334.355 309.5 333.25 309.5Z" fill="#FFD966"/><path d="M340.58 331.14 335.63 336.14C334.791 336.858 334.693 338.121 335.412 338.96 336.13 339.799 337.393 339.897 338.232 339.178 338.31 339.111 338.383 339.038 338.45 338.96L343.4 333.96C344.118 333.121 344.021 331.858 343.182 331.14 342.433 330.499 341.329 330.499 340.58 331.14Z" fill="#FFD966"/><path d="M388.08 330.76C387.34 329.94 386.075 329.876 385.255 330.616 384.435 331.356 384.371 332.621 385.111 333.441 385.155 333.489 385.202 333.536 385.25 333.58L390.25 338.58C390.957 339.429 392.218 339.544 393.067 338.837 393.915 338.13 394.03 336.869 393.323 336.02 393.228 335.905 393.119 335.801 393 335.71Z" fill="#FFD966"/><path d="M402 309.43 395 309.43C393.895 309.43 393 310.325 393 311.43 393 312.535 393.895 313.43 395 313.43L402 313.43C403.105 313.43 404 312.535 404 311.43 404 310.325 403.105 309.43 402 309.43Z" fill="#FFD966"/></g></g></g><g clip-path="url(#clip5)"><g clip-path="url(#clip6)"><g clip-path="url(#clip7)"><path d="M131.156 488.375C131.376 489.202 130.884 490.05 130.058 490.27 129.232 490.489 128.384 489.998 128.164 489.172 127.944 488.346 128.436 487.498 129.262 487.278 130.088 487.058 130.936 487.549 131.156 488.375Z" fill="#FFFFFF"/><path d="M132.749 494.359C132.969 495.185 132.477 496.033 131.651 496.253 130.825 496.473 129.977 495.982 129.757 495.155 129.537 494.329 130.028 493.481 130.855 493.261 131.681 493.041 132.529 493.533 132.749 494.359Z" fill="#FFFFFF"/><path d="M128.961 492.164C129.18 492.99 128.689 493.838 127.863 494.058 127.037 494.277 126.189 493.786 125.969 492.96 125.749 492.134 126.24 491.286 127.067 491.066 127.893 490.846 128.741 491.337 128.961 492.164Z" fill="#FFFFFF"/><path d="M134.944 490.571C135.164 491.397 134.673 492.245 133.846 492.465 133.02 492.685 132.172 492.193 131.952 491.367 131.732 490.541 132.224 489.693 133.05 489.473 133.876 489.253 134.724 489.745 134.944 490.571Z" fill="#FFFFFF"/><path d="M151.303 479.81C151.522 480.636 151.031 481.484 150.205 481.704 149.379 481.924 148.531 481.432 148.311 480.606 148.091 479.78 148.582 478.932 149.409 478.712 150.235 478.492 151.083 478.984 151.303 479.81Z" fill="#FFFFFF"/><path d="M152.895 485.794C153.115 486.62 152.623 487.468 151.797 487.688 150.971 487.907 150.123 487.416 149.903 486.59 149.683 485.764 150.175 484.916 151.001 484.696 151.827 484.476 152.675 484.967 152.895 485.794Z" fill="#FFFFFF"/><path d="M149.107 483.598C149.327 484.424 148.835 485.272 148.009 485.492 147.183 485.712 146.335 485.22 146.115 484.394 145.895 483.568 146.387 482.72 147.213 482.5 148.039 482.28 148.887 482.772 149.107 483.598Z" fill="#FFFFFF"/><path d="M155.091 482.005C155.311 482.832 154.819 483.68 153.993 483.899 153.167 484.119 152.319 483.628 152.099 482.802 151.879 481.976 152.37 481.128 153.197 480.908 154.023 480.688 154.871 481.179 155.091 482.005Z" fill="#FFFFFF"/><path d="M174.881 487.15 171.588 492.832 165.604 494.425 169.984 510.88 175.968 509.287 181.65 512.581 186.137 511.386 179.369 485.956Z" fill="#FFFFFF"/><path d="M152.395 489.931C148.655 490.927 144.867 488.731 143.871 484.991 142.876 481.252 145.072 477.464 148.811 476.468 152.551 475.473 156.339 477.668 157.335 481.408 158.33 485.148 156.134 488.936 152.395 489.931ZM161.008 513.269C160.186 513.488 159.333 512.994 159.114 512.171 158.895 511.348 159.389 510.496 160.212 510.277 161.035 510.058 161.887 510.552 162.106 511.375 162.325 512.198 161.831 513.05 161.008 513.269ZM141.223 496.108C141.838 494.503 142.187 492.808 142.029 491.008 143.499 492.619 145.487 493.772 147.581 494.416L141.223 496.108ZM132.248 498.497C128.508 499.492 124.72 497.297 123.725 493.557 122.73 489.817 124.925 486.029 128.665 485.034 132.405 484.039 136.193 486.234 137.188 489.974 138.183 493.714 135.988 497.502 132.248 498.497ZM158.726 491.45C161.574 488.61 162.937 484.402 161.822 480.214 160.17 474.006 153.825 470.328 147.617 471.98 142.157 473.434 138.704 478.517 139.031 483.957 136.205 480.864 131.809 479.392 127.47 480.546 121.262 482.198 117.585 488.543 119.237 494.751 120.213 498.416 122.864 501.155 126.114 502.532L126.711 504.776 125.215 505.174 123.321 504.077 120.329 504.873 122.32 512.352 125.312 511.556 126.409 509.662 127.905 509.264 131.488 522.727C131.926 524.373 133.631 525.361 135.276 524.923L165.195 516.96C166.84 516.522 167.828 514.818 167.39 513.172L162.215 493.725C161.796 492.155 160.261 491.202 158.726 491.45Z" fill="#FFFFFF"/></g></g></g><g clip-path="url(#clip8)"><g clip-path="url(#clip9)"><g clip-path="url(#clip10)"><path d="M116.167 53.8333 87.8333 53.8333 87.8333 36.8333 116.167 36.8333 116.167 53.8333ZM116.167 76.5 87.8333 76.5 87.8333 59.5 116.167 59.5 116.167 76.5ZM116.167 99.1667 87.8333 99.1667 87.8333 82.1667 116.167 82.1667 116.167 99.1667ZM53.8333 99.1667 53.8333 82.1667 82.1667 82.1667 82.1667 99.1667 53.8333 99.1667ZM19.8333 99.1667 19.8333 82.1667 48.1667 82.1667 48.1667 99.1667 19.8333 99.1667ZM19.8333 59.5 48.1667 59.5 48.1667 76.5 19.8333 76.5 19.8333 59.5ZM19.8333 36.8333 48.1667 36.8333 48.1667 53.8333 19.8333 53.8333 19.8333 36.8333ZM82.1667 59.5 82.1667 76.5 53.8333 76.5 53.8333 59.5 82.1667 59.5ZM82.1667 36.8333 82.1667 53.8333 53.8333 53.8333 53.8333 36.8333 82.1667 36.8333ZM11.3333 28.3333 11.3333 107.667 124.667 107.667 124.667 28.3333 11.3333 28.3333Z" fill="#FFFFFF" transform="matrix(1.26471 0 0 1 173 347)"/></g></g></g><g clip-path="url(#clip11)" filter="url(#fx0)" transform="translate(96 254)"><g clip-path="url(#clip12)"><path d="M9.1416-24.0103 15.23-9.05127C15.5431-8.31657 16.1875-6.50391 17.1631-3.61328 17.5244-4.78158 18.1989-6.59424 19.1865-9.05127L25.0942-24.0103 31.0381-24.0103 31.0381 1.44531 27.0454 1.44531 27.0454-15.4287C27.0454-16.1755 27.0575-16.9252 27.0815-17.678 27.1056-18.4307 27.1297-19.1865 27.1538-19.9453 26.8768-19.1745 26.6479-18.5452 26.4673-18.0574 26.2866-17.5696 25.8892-16.5368 25.2749-14.959L18.8252 1.44531 15.501 1.44531 8.81641-15.1577C8.10579-16.9523 7.51562-18.5482 7.0459-19.9453 7.06999-19.1986 7.09106-18.4578 7.10913-17.7231 7.1272-16.9884 7.13623-16.2477 7.13623-15.501L7.13623 1.44531 3.16162 1.44531 3.16162-24.0103ZM40.4258-7.02783C40.486-5.13688 40.9045-3.68254 41.6814-2.66479 42.4583-1.64705 43.5212-1.13818 44.8701-1.13818 45.7855-1.13818 46.6015-1.36702 47.3181-1.82471 48.0347-2.28239 48.6821-3.05322 49.2603-4.13721L52.5303-2.56543C51.8197-1.42122 51.109-0.554036 50.3984 0.0361328 49.6878 0.626302 48.8598 1.06893 47.9143 1.36401 46.9688 1.6591 45.8457 1.80664 44.5449 1.80664 41.835 1.80664 39.7453 0.954508 38.2759-0.749756 36.8065-2.45402 36.0718-4.84782 36.0718-7.93115 36.0718-11.0386 36.8426-13.4023 38.3843-15.0222 39.9259-16.6422 42.0277-17.4521 44.6895-17.4521 47.3271-17.4521 49.3446-16.588 50.7417-14.8596 52.1388-13.1313 52.8374-10.6893 52.8374-7.53369L52.8374-7.02783ZM44.5449-14.5796C43.3284-14.5796 42.3589-14.146 41.6362-13.2788 40.9136-12.4116 40.5221-11.2132 40.4619-9.68359L48.5195-9.68359C48.3991-11.3216 48.0257-12.5471 47.3994-13.3601 46.7731-14.1731 45.8216-14.5796 44.5449-14.5796ZM62.5536 1.77051C61.1082 1.77051 59.967 1.35799 59.13 0.532959 58.2929-0.292074 57.8743-1.47542 57.8744-3.01709L57.8744-14.0557 55.1463-14.0557 55.1463-17.0728 57.9286-17.0728 59.2474-21.5532 62.0116-21.5532 62.0116-17.0728 66.474-17.0728 66.474-14.0557 62.0116-14.0557 62.0116-4.06494C62.0116-2.23421 62.7884-1.31885 64.3421-1.31885 65.0768-1.31885 65.8657-1.39714 66.7088-1.55371L66.7088 1.22852C65.3358 1.58984 63.9507 1.77051 62.5536 1.77051ZM82.7562 1.44531 82.7562-8.78027C82.7562-10.6833 82.4792-12.0262 81.9251-12.8091 81.3711-13.592 80.5039-13.9834 79.3236-13.9834 77.8783-13.9834 76.7491-13.4956 75.9361-12.52 75.1231-11.5444 74.7166-10.2015 74.7166-8.49121L74.7166 1.44531 70.5614 1.44531 70.5614-24.8232 74.7166-24.8232 74.7166-16.8018C74.7166-16.2598 74.7076-15.7208 74.6895-15.1848 74.6715-14.6488 74.6504-14.1099 74.6263-13.5679L74.6986-13.5679C75.373-14.9168 76.171-15.9014 77.0924-16.5217 78.0137-17.142 79.2272-17.4521 80.7327-17.4521 82.7923-17.4521 84.337-16.8469 85.3668-15.6365 86.3966-14.426 86.9115-12.5562 86.9115-10.0269L86.9115 1.44531ZM110.042-7.85889C110.042-4.83577 109.201-2.46908 107.521-0.758789 105.841 0.951497 103.483 1.80664 100.448 1.80664 97.5094 1.80664 95.209 0.939453 93.5469-0.794922 91.8848-2.5293 91.0537-4.88395 91.0537-7.85889 91.0537-10.882 91.8878-13.2367 93.5559-14.9229 95.224-16.609 97.5576-17.4521 100.557-17.4521 103.652-17.4521 106.007-16.6301 107.621-14.9861 109.235-13.342 110.042-10.9663 110.042-7.85889ZM105.688-7.85889C105.688-12.2069 104.007-14.3809 100.647-14.3809 97.1541-14.3809 95.4077-12.2069 95.4077-7.85889 95.4077-5.72705 95.8353-4.09505 96.6904-2.96289 97.5456-1.83073 98.7861-1.26465 100.412-1.26465 103.929-1.26465 105.688-3.46273 105.688-7.85889ZM117.705-7.85889C117.705-3.45068 119.241-1.24658 122.312-1.24658 123.938-1.24658 125.172-1.80965 126.015-2.93579 126.859-4.06193 127.28-5.69694 127.28-7.84082 127.28-9.9847 126.865-11.6137 126.034-12.7278 125.202-13.8419 123.98-14.3989 122.366-14.3989 119.259-14.3989 117.705-12.2189 117.705-7.85889ZM113.387-7.80469C113.387-10.8037 114.086-13.1614 115.483-14.8777 116.88-16.594 118.843-17.4521 121.372-17.4521 122.745-17.4521 123.902-17.1992 124.841-16.6934 125.781-16.1875 126.576-15.3564 127.226-14.2002L127.298-14.2002C127.274-14.682 127.253-15.1607 127.235-15.6365 127.217-16.1122 127.208-16.591 127.208-17.0728L127.208-24.8232 131.381-24.8232 131.381-2.69189C131.381-1.42725 131.429-0.048177 131.526 1.44531L127.461 1.44531C127.413 1.26465 127.364 0.776855 127.316-0.0180664 127.268-0.812988 127.244-1.36702 127.244-1.68018L127.172-1.68018C125.955 0.62028 123.986 1.77051 121.264 1.77051 118.747 1.77051 116.805 0.951497 115.438-0.686523 114.071-2.32454 113.387-4.69727 113.387-7.80469ZM149.148-3.88428C149.148-2.10173 148.543-0.707601 147.332 0.298096 146.122 1.30379 144.426 1.80664 142.246 1.80664 139.982 1.80664 138.32 1.45133 137.26 0.740723 136.2 0.0301107 135.502-1.1141 135.164-2.69189L138.742-3.25195C138.91-2.4209 139.268-1.82471 139.816-1.46338 140.365-1.10205 141.15-0.921387 142.174-0.921387 143.102-0.921387 143.851-1.12012 144.423-1.51758 144.996-1.91504 145.282-2.55941 145.282-3.45068 145.282-3.99268 145.155-4.44132 144.902-4.79663 144.649-5.15194 144.273-5.45907 143.773-5.71802 143.273-5.97697 142.301-6.29915 140.855-6.68457 139.53-7.03385 138.546-7.4283 137.901-7.86792 137.257-8.30754 136.76-8.86157 136.411-9.53003 136.062-10.1985 135.887-11.0205 135.887-11.9961 135.887-13.7184 136.426-15.0583 137.504-16.0159 138.582-16.9734 140.157-17.4521 142.228-17.4521 144.143-17.4521 145.616-17.0999 146.646-16.3953 147.675-15.6907 148.323-14.6097 148.588-13.1523L144.974-12.7729C144.842-13.4836 144.55-13.9834 144.098-14.2725 143.647-14.5615 143.035-14.7061 142.264-14.7061 140.566-14.7061 139.717-13.9593 139.717-12.4658 139.717-11.984 139.823-11.5866 140.033-11.2734 140.244-10.9603 140.551-10.6923 140.955-10.4695 141.358-10.2467 142.277-9.9305 143.71-9.521 145.288-9.07536 146.408-8.62671 147.07-8.17505 147.733-7.72339 148.244-7.1543 148.606-6.46777 148.967-5.78125 149.148-4.92008 149.148-3.88428Z" fill="#FFFFFF" transform="translate(26.3569 50)"/></g></g><text fill="#FFFFFF" font-family="DengXian,DengXian_MSFontService,sans-serif" font-weight="700" font-size="37" transform="translate(121.518 303)">Methods</text><path d="M1.47105-1.355 23.151 22.1818 20.2089 24.8918-1.47105 1.355ZM31.281 31.0081 33.991 33.9502 31.0489 36.6602 28.3389 33.7181ZM42.1209 42.7765 44.8309 45.7186 41.8888 48.4285 39.1789 45.4865ZM52.9609 54.5448 69.99 73.0324 67.0479 75.7424 50.0188 57.2548ZM71.577 68.8513 75.2939 81.7426 62.7507 76.9813Z" fill="#FFFFFF" transform="matrix(1 0 0 -1 189 496.743)"/><path d="M1.4388-1.38919 12.5523 10.1212 9.67472 12.8996-1.4388 1.38919ZM20.8875 18.754 23.6658 21.6316 20.7882 24.41 18.0099 21.5324ZM32.001 30.2645 37.3865 35.8423 34.5089 38.6207 29.1234 33.0428ZM38.8749 31.6251 42.8936 44.4255 30.2421 39.9603Z" fill="#FFFFFF" transform="matrix(1 0 0 -1 295 380.426)"/><g clip-path="url(#clip13)"><g clip-path="url(#clip14)"><g clip-path="url(#clip15)"><path d="M37.5 7.8125C21.0938 7.8125 7.8125 21.0938 7.8125 37.5 7.8125 53.9062 21.0938 67.1875 37.5 67.1875 53.9062 67.1875 67.1875 53.9062 67.1875 37.5 67.1875 21.0938 53.9062 7.8125 37.5 7.8125ZM37.5 59.375C35.3125 59.375 33.5938 57.6563 33.5938 55.4688 33.5938 53.2812 35.3125 51.5625 37.5 51.5625 39.6875 51.5625 41.4062 53.2812 41.4062 55.4688 41.4062 57.6563 39.6875 59.375 37.5 59.375ZM39.8438 41.25C39.8438 43.2812 39.8438 48.4375 39.8438 48.4375L35.1562 48.4375 35.1562 36.7188 37.5 36.7188C42.7344 36.7188 46.0938 33.6719 46.0938 28.9062 46.0938 23.9844 42.4219 20.3125 37.5 20.3125 32.1094 20.3125 28.9062 23.5156 28.9062 28.9062L24.2188 28.9062C24.2188 20.9375 29.5312 15.625 37.5 15.625 44.9219 15.625 50.7812 21.4844 50.7812 28.9062 50.7812 35.5469 46.4062 40.3125 39.8438 41.25Z" fill="#FFFFFF" transform="matrix(1 0 0 1.01333 327 464)"/></g></g></g></g></svg>