<svg width="310" height="297" xmlns="http://www.w3.org/2000/svg" xmlns:xlink="http://www.w3.org/1999/xlink" overflow="hidden"><defs><clipPath id="clip0"><rect x="199" y="247" width="310" height="297"/></clipPath></defs><g clip-path="url(#clip0)" transform="translate(-199 -247)"><rect x="220.5" y="451.5" width="111" height="73" stroke="#000000" stroke-width="1.33333" stroke-miterlimit="8" fill="#FFFFFF"/><path d="M220 463 330.769 463" stroke="#000000" stroke-width="2" stroke-miterlimit="8" fill="none" fill-rule="evenodd"/><path d="M220 480 330.769 480" stroke="#000000" stroke-width="2" stroke-miterlimit="8" fill="none" fill-rule="evenodd"/><path d="M220 496 330.769 496" stroke="#000000" stroke-width="2" stroke-miterlimit="8" fill="none" fill-rule="evenodd"/><path d="M220 512 330.769 512" stroke="#000000" stroke-width="2" stroke-miterlimit="8" fill="none" fill-rule="evenodd"/><path d="M235 451 235 524.026" stroke="#000000" stroke-width="2" stroke-miterlimit="8" fill="none" fill-rule="evenodd"/><path d="M250 451 250 524.026" stroke="#000000" stroke-width="2" stroke-miterlimit="8" fill="none" fill-rule="evenodd"/><path d="M267 451 267 524.026" stroke="#000000" stroke-width="2" stroke-miterlimit="8" fill="none" fill-rule="evenodd"/><path d="M283 451 283 524.026" stroke="#000000" stroke-width="2" stroke-miterlimit="8" fill="none" fill-rule="evenodd"/><path d="M299 451 299 524.026" stroke="#000000" stroke-width="2" stroke-miterlimit="8" fill="none" fill-rule="evenodd"/><path d="M315 451 315 524.026" stroke="#000000" stroke-width="2" stroke-miterlimit="8" fill="none" fill-rule="evenodd"/><path d="M0 0 134.157 28.4445" stroke="#FFFFFF" stroke-width="2" stroke-linejoin="round" stroke-miterlimit="10" stroke-dasharray="8 6" fill="none" fill-rule="evenodd" transform="matrix(1 0 0 -1 267 480.445)"/><path d="M0 0 56.4051 106.196" stroke="#FFFFFF" stroke-width="2" stroke-linejoin="round" stroke-miterlimit="10" stroke-dasharray="8 6" fill="none" fill-rule="evenodd" transform="matrix(1 0 0 -1 248 461.196)"/><path d="M304.5 355C304.5 301.152 347.928 257.5 401.5 257.5 455.072 257.5 498.5 301.152 498.5 355 498.5 408.848 455.072 452.5 401.5 452.5 347.928 452.5 304.5 408.848 304.5 355Z" stroke="#000000" stroke-width="1.33333" stroke-miterlimit="8" fill="#FFFFFF" fill-rule="evenodd"/><path d="M321 302 482.362 302" stroke="#000000" stroke-width="2" stroke-miterlimit="8" fill="none" fill-rule="evenodd"/><path d="M321 410 482.362 410" stroke="#000000" stroke-width="2" stroke-miterlimit="8" fill="none" fill-rule="evenodd"/><path d="M347 276 347 433.517" stroke="#000000" stroke-width="2" stroke-miterlimit="8" fill="none" fill-rule="evenodd"/><path d="M458 276 458 433.517" stroke="#000000" stroke-width="2" stroke-miterlimit="8" fill="none" fill-rule="evenodd"/><path d="M359.5 322.5C359.5 318.634 362.41 315.5 366 315.5 369.59 315.5 372.5 318.634 372.5 322.5 372.5 326.366 369.59 329.5 366 329.5 362.41 329.5 359.5 326.366 359.5 322.5Z" stroke="#000000" stroke-width="1.33333" stroke-miterlimit="8" fill-rule="evenodd"/><path d="M399.5 339.5C399.5 335.634 402.634 332.5 406.5 332.5 410.366 332.5 413.5 335.634 413.5 339.5 413.5 343.366 410.366 346.5 406.5 346.5 402.634 346.5 399.5 343.366 399.5 339.5Z" stroke="#000000" stroke-width="1.33333" stroke-miterlimit="8" fill-rule="evenodd"/><path d="M382.5 365.5C382.5 361.634 385.41 358.5 389 358.5 392.59 358.5 395.5 361.634 395.5 365.5 395.5 369.366 392.59 372.5 389 372.5 385.41 372.5 382.5 369.366 382.5 365.5Z" stroke="#000000" stroke-width="1.33333" stroke-miterlimit="8" fill-rule="evenodd"/><path d="M428.5 376C428.5 372.41 431.41 369.5 435 369.5 438.59 369.5 441.5 372.41 441.5 376 441.5 379.59 438.59 382.5 435 382.5 431.41 382.5 428.5 379.59 428.5 376Z" stroke="#000000" stroke-width="1.33333" stroke-miterlimit="8" fill-rule="evenodd"/><path d="M363.5 396.5C363.5 392.634 366.41 389.5 370 389.5 373.59 389.5 376.5 392.634 376.5 396.5 376.5 400.366 373.59 403.5 370 403.5 366.41 403.5 363.5 400.366 363.5 396.5Z" stroke="#000000" stroke-width="1.33333" stroke-miterlimit="8" fill-rule="evenodd"/><path d="M408.5 381C408.5 377.41 411.634 374.5 415.5 374.5 419.366 374.5 422.5 377.41 422.5 381 422.5 384.59 419.366 387.5 415.5 387.5 411.634 387.5 408.5 384.59 408.5 381Z" stroke="#000000" stroke-width="1.33333" stroke-miterlimit="8" fill-rule="evenodd"/><path d="M431.5 317.5C431.5 313.634 434.41 310.5 438 310.5 441.59 310.5 444.5 313.634 444.5 317.5 444.5 321.366 441.59 324.5 438 324.5 434.41 324.5 431.5 321.366 431.5 317.5Z" stroke="#000000" stroke-width="1.33333" stroke-miterlimit="8" fill-rule="evenodd"/><path d="M317.5 337C317.5 333.41 320.41 330.5 324 330.5 327.59 330.5 330.5 333.41 330.5 337 330.5 340.59 327.59 343.5 324 343.5 320.41 343.5 317.5 340.59 317.5 337Z" stroke="#000000" stroke-width="1.33333" stroke-miterlimit="8" fill-rule="evenodd"/><path d="M328.5 398C328.5 394.41 331.634 391.5 335.5 391.5 339.366 391.5 342.5 394.41 342.5 398 342.5 401.59 339.366 404.5 335.5 404.5 331.634 404.5 328.5 401.59 328.5 398Z" stroke="#000000" stroke-width="1.33333" stroke-miterlimit="8" fill-rule="evenodd"/><path d="M361.5 278C361.5 274.41 364.41 271.5 368 271.5 371.59 271.5 374.5 274.41 374.5 278 374.5 281.59 371.59 284.5 368 284.5 364.41 284.5 361.5 281.59 361.5 278Z" stroke="#000000" stroke-width="1.33333" stroke-miterlimit="8" fill-rule="evenodd"/><path d="M408.5 291.5C408.5 287.634 411.41 284.5 415 284.5 418.59 284.5 421.5 287.634 421.5 291.5 421.5 295.366 418.59 298.5 415 298.5 411.41 298.5 408.5 295.366 408.5 291.5Z" stroke="#000000" stroke-width="1.33333" stroke-miterlimit="8" fill-rule="evenodd"/><path d="M371.5 431C371.5 427.41 374.634 424.5 378.5 424.5 382.366 424.5 385.5 427.41 385.5 431 385.5 434.59 382.366 437.5 378.5 437.5 374.634 437.5 371.5 434.59 371.5 431Z" stroke="#000000" stroke-width="1.33333" stroke-miterlimit="8" fill-rule="evenodd"/><path d="M473.5 334.5C473.5 330.634 476.41 327.5 480 327.5 483.59 327.5 486.5 330.634 486.5 334.5 486.5 338.366 483.59 341.5 480 341.5 476.41 341.5 473.5 338.366 473.5 334.5Z" stroke="#000000" stroke-width="1.33333" stroke-miterlimit="8" fill-rule="evenodd"/><path d="M464.5 394.5C464.5 390.634 467.634 387.5 471.5 387.5 475.366 387.5 478.5 390.634 478.5 394.5 478.5 398.366 475.366 401.5 471.5 401.5 467.634 401.5 464.5 398.366 464.5 394.5Z" stroke="#000000" stroke-width="1.33333" stroke-miterlimit="8" fill-rule="evenodd"/><path d="M432.5 421C432.5 417.41 435.41 414.5 439 414.5 442.59 414.5 445.5 417.41 445.5 421 445.5 424.59 442.59 427.5 439 427.5 435.41 427.5 432.5 424.59 432.5 421Z" stroke="#000000" stroke-width="1.33333" stroke-miterlimit="8" fill-rule="evenodd"/><path d="M422.5 277.5C422.5 273.634 425.41 270.5 429 270.5 432.59 270.5 435.5 273.634 435.5 277.5 435.5 281.366 432.59 284.5 429 284.5 425.41 284.5 422.5 281.366 422.5 277.5Z" stroke="#000000" stroke-width="1.33333" stroke-miterlimit="8" fill-rule="evenodd"/><path d="M244 470.5C244 463.044 250.044 457 257.5 457 264.956 457 271 463.044 271 470.5 271 477.956 264.956 484 257.5 484 250.044 484 244 477.956 244 470.5Z" stroke="#000000" stroke-width="2" stroke-linejoin="round" stroke-miterlimit="10" stroke-dasharray="8 6" fill="none" fill-rule="evenodd"/></g></svg>