<svg width="318" height="298" xmlns="http://www.w3.org/2000/svg" xmlns:xlink="http://www.w3.org/1999/xlink" overflow="hidden"><defs><filter id="fx0" x="-10%" y="-10%" width="120%" height="120%" filterUnits="userSpaceOnUse" primitiveUnits="userSpaceOnUse"><feComponentTransfer color-interpolation-filters="sRGB"><feFuncR type="discrete" tableValues="0 0"/><feFuncG type="discrete" tableValues="0 0"/><feFuncB type="discrete" tableValues="0 0"/><feFuncA type="linear" slope="0.4" intercept="0"/></feComponentTransfer><feGaussianBlur stdDeviation="0.723123 0.723123"/></filter><clipPath id="clip1"><rect x="143" y="275" width="318" height="298"/></clipPath><clipPath id="clip2"><rect x="157" y="319" width="120" height="159"/></clipPath><clipPath id="clip3"><rect x="157" y="319" width="120" height="159"/></clipPath><clipPath id="clip4"><rect x="157" y="319" width="120" height="159"/></clipPath><clipPath id="clip5"><rect x="249" y="319" width="119" height="159"/></clipPath><clipPath id="clip6"><rect x="249" y="319" width="119" height="159"/></clipPath><clipPath id="clip7"><rect x="249" y="319" width="119" height="159"/></clipPath><clipPath id="clip8"><rect x="341" y="319" width="119" height="159"/></clipPath><clipPath id="clip9"><rect x="341" y="319" width="119" height="159"/></clipPath><clipPath id="clip10"><rect x="341" y="319" width="119" height="159"/></clipPath><clipPath id="clip11"><rect x="157" y="401" width="120" height="159"/></clipPath><clipPath id="clip12"><rect x="157" y="401" width="120" height="159"/></clipPath><clipPath id="clip13"><rect x="157" y="401" width="120" height="159"/></clipPath><clipPath id="clip14"><rect x="249" y="401" width="119" height="159"/></clipPath><clipPath id="clip15"><rect x="249" y="401" width="119" height="159"/></clipPath><clipPath id="clip16"><rect x="249" y="401" width="119" height="159"/></clipPath><clipPath id="clip17"><rect x="341" y="401" width="119" height="159"/></clipPath><clipPath id="clip18"><rect x="341" y="401" width="119" height="159"/></clipPath><clipPath id="clip19"><rect x="341" y="401" width="119" height="159"/></clipPath><clipPath id="clip20"><rect x="24" y="22" width="129" height="40"/></clipPath><clipPath id="clip21"><rect x="0" y="0" width="178" height="86"/></clipPath></defs><g clip-path="url(#clip1)" transform="translate(-143 -275)"><g clip-path="url(#clip2)"><g clip-path="url(#clip3)"><g clip-path="url(#clip4)"><path d="M102.5 47.5 77.5 47.5 77.5 32.5 102.5 32.5 102.5 47.5ZM102.5 67.5 77.5 67.5 77.5 52.5 102.5 52.5 102.5 67.5ZM102.5 87.5 77.5 87.5 77.5 72.5 102.5 72.5 102.5 87.5ZM47.5 87.5 47.5 72.5 72.5 72.5 72.5 87.5 47.5 87.5ZM17.5 87.5 17.5 72.5 42.5 72.5 42.5 87.5 17.5 87.5ZM17.5 52.5 42.5 52.5 42.5 67.5 17.5 67.5 17.5 52.5ZM17.5 32.5 42.5 32.5 42.5 47.5 17.5 47.5 17.5 32.5ZM72.5 52.5 72.5 67.5 47.5 67.5 47.5 52.5 72.5 52.5ZM72.5 32.5 72.5 47.5 47.5 47.5 47.5 32.5 72.5 32.5ZM10 25 10 95 110 95 110 25 10 25Z" fill="#FFFFFF" transform="matrix(1 0 0 1.325 157 319)"/></g></g></g><g clip-path="url(#clip5)"><g clip-path="url(#clip6)"><g clip-path="url(#clip7)"><path d="M101.646 47.1042 76.8542 47.1042 76.8542 32.2292 101.646 32.2292 101.646 47.1042ZM101.646 66.9375 76.8542 66.9375 76.8542 52.0625 101.646 52.0625 101.646 66.9375ZM101.646 86.7708 76.8542 86.7708 76.8542 71.8958 101.646 71.8958 101.646 86.7708ZM47.1042 86.7708 47.1042 71.8958 71.8958 71.8958 71.8958 86.7708 47.1042 86.7708ZM17.3542 86.7708 17.3542 71.8958 42.1458 71.8958 42.1458 86.7708 17.3542 86.7708ZM17.3542 52.0625 42.1458 52.0625 42.1458 66.9375 17.3542 66.9375 17.3542 52.0625ZM17.3542 32.2292 42.1458 32.2292 42.1458 47.1042 17.3542 47.1042 17.3542 32.2292ZM71.8958 52.0625 71.8958 66.9375 47.1042 66.9375 47.1042 52.0625 71.8958 52.0625ZM71.8958 32.2292 71.8958 47.1042 47.1042 47.1042 47.1042 32.2292 71.8958 32.2292ZM9.91667 24.7917 9.91667 94.2083 109.083 94.2083 109.083 24.7917 9.91667 24.7917Z" fill="#FFFFFF" transform="matrix(1 0 0 1.33613 249 319)"/></g></g></g><g clip-path="url(#clip8)"><g clip-path="url(#clip9)"><g clip-path="url(#clip10)"><path d="M101.646 47.1042 76.8542 47.1042 76.8542 32.2292 101.646 32.2292 101.646 47.1042ZM101.646 66.9375 76.8542 66.9375 76.8542 52.0625 101.646 52.0625 101.646 66.9375ZM101.646 86.7708 76.8542 86.7708 76.8542 71.8958 101.646 71.8958 101.646 86.7708ZM47.1042 86.7708 47.1042 71.8958 71.8958 71.8958 71.8958 86.7708 47.1042 86.7708ZM17.3542 86.7708 17.3542 71.8958 42.1458 71.8958 42.1458 86.7708 17.3542 86.7708ZM17.3542 52.0625 42.1458 52.0625 42.1458 66.9375 17.3542 66.9375 17.3542 52.0625ZM17.3542 32.2292 42.1458 32.2292 42.1458 47.1042 17.3542 47.1042 17.3542 32.2292ZM71.8958 52.0625 71.8958 66.9375 47.1042 66.9375 47.1042 52.0625 71.8958 52.0625ZM71.8958 32.2292 71.8958 47.1042 47.1042 47.1042 47.1042 32.2292 71.8958 32.2292ZM9.91667 24.7917 9.91667 94.2083 109.083 94.2083 109.083 24.7917 9.91667 24.7917Z" fill="#FFFFFF" transform="matrix(1 0 0 1.33613 341 319)"/></g></g></g><g clip-path="url(#clip11)"><g clip-path="url(#clip12)"><g clip-path="url(#clip13)"><path d="M102.5 47.5 77.5 47.5 77.5 32.5 102.5 32.5 102.5 47.5ZM102.5 67.5 77.5 67.5 77.5 52.5 102.5 52.5 102.5 67.5ZM102.5 87.5 77.5 87.5 77.5 72.5 102.5 72.5 102.5 87.5ZM47.5 87.5 47.5 72.5 72.5 72.5 72.5 87.5 47.5 87.5ZM17.5 87.5 17.5 72.5 42.5 72.5 42.5 87.5 17.5 87.5ZM17.5 52.5 42.5 52.5 42.5 67.5 17.5 67.5 17.5 52.5ZM17.5 32.5 42.5 32.5 42.5 47.5 17.5 47.5 17.5 32.5ZM72.5 52.5 72.5 67.5 47.5 67.5 47.5 52.5 72.5 52.5ZM72.5 32.5 72.5 47.5 47.5 47.5 47.5 32.5 72.5 32.5ZM10 25 10 95 110 95 110 25 10 25Z" fill="#FFFFFF" transform="matrix(1 0 0 1.325 157 401)"/></g></g></g><g clip-path="url(#clip14)"><g clip-path="url(#clip15)"><g clip-path="url(#clip16)"><path d="M101.646 47.1042 76.8542 47.1042 76.8542 32.2292 101.646 32.2292 101.646 47.1042ZM101.646 66.9375 76.8542 66.9375 76.8542 52.0625 101.646 52.0625 101.646 66.9375ZM101.646 86.7708 76.8542 86.7708 76.8542 71.8958 101.646 71.8958 101.646 86.7708ZM47.1042 86.7708 47.1042 71.8958 71.8958 71.8958 71.8958 86.7708 47.1042 86.7708ZM17.3542 86.7708 17.3542 71.8958 42.1458 71.8958 42.1458 86.7708 17.3542 86.7708ZM17.3542 52.0625 42.1458 52.0625 42.1458 66.9375 17.3542 66.9375 17.3542 52.0625ZM17.3542 32.2292 42.1458 32.2292 42.1458 47.1042 17.3542 47.1042 17.3542 32.2292ZM71.8958 52.0625 71.8958 66.9375 47.1042 66.9375 47.1042 52.0625 71.8958 52.0625ZM71.8958 32.2292 71.8958 47.1042 47.1042 47.1042 47.1042 32.2292 71.8958 32.2292ZM9.91667 24.7917 9.91667 94.2083 109.083 94.2083 109.083 24.7917 9.91667 24.7917Z" fill="#FFFFFF" transform="matrix(1 0 0 1.33613 249 401)"/></g></g></g><g clip-path="url(#clip17)"><g clip-path="url(#clip18)"><g clip-path="url(#clip19)"><path d="M101.646 47.1042 76.8542 47.1042 76.8542 32.2292 101.646 32.2292 101.646 47.1042ZM101.646 66.9375 76.8542 66.9375 76.8542 52.0625 101.646 52.0625 101.646 66.9375ZM101.646 86.7708 76.8542 86.7708 76.8542 71.8958 101.646 71.8958 101.646 86.7708ZM47.1042 86.7708 47.1042 71.8958 71.8958 71.8958 71.8958 86.7708 47.1042 86.7708ZM17.3542 86.7708 17.3542 71.8958 42.1458 71.8958 42.1458 86.7708 17.3542 86.7708ZM17.3542 52.0625 42.1458 52.0625 42.1458 66.9375 17.3542 66.9375 17.3542 52.0625ZM17.3542 32.2292 42.1458 32.2292 42.1458 47.1042 17.3542 47.1042 17.3542 32.2292ZM71.8958 52.0625 71.8958 66.9375 47.1042 66.9375 47.1042 52.0625 71.8958 52.0625ZM71.8958 32.2292 71.8958 47.1042 47.1042 47.1042 47.1042 32.2292 71.8958 32.2292ZM9.91667 24.7917 9.91667 94.2083 109.083 94.2083 109.083 24.7917 9.91667 24.7917Z" fill="#FFFFFF" transform="matrix(1 0 0 1.33613 341 401)"/></g></g></g><path d="M212 372.5C212 369.462 214.239 367 217 367 219.761 367 222 369.462 222 372.5 222 375.538 219.761 378 217 378 214.239 378 212 375.538 212 372.5Z" fill="#FFFFFF" fill-rule="evenodd"/><path d="M214 505.5C214 502.462 216.239 500 219 500 221.761 500 224 502.462 224 505.5 224 508.538 221.761 511 219 511 216.239 511 214 508.538 214 505.5Z" fill="#FFFFFF" fill-rule="evenodd"/><path d="M185 480.5C185 477.462 187.239 475 190 475 192.761 475 195 477.462 195 480.5 195 483.538 192.761 486 190 486 187.239 486 185 483.538 185 480.5Z" fill="#FFFFFF" fill-rule="evenodd"/><path d="M180 398C180 395.239 182.239 393 185 393 187.761 393 190 395.239 190 398 190 400.761 187.761 403 185 403 182.239 403 180 400.761 180 398Z" fill="#FFFFFF" fill-rule="evenodd"/><path d="M240 422.5C240 419.462 242.462 417 245.5 417 248.538 417 251 419.462 251 422.5 251 425.538 248.538 428 245.5 428 242.462 428 240 425.538 240 422.5Z" fill="#FFFFFF" fill-rule="evenodd"/><path d="M214 455C214 452.239 216.239 450 219 450 221.761 450 224 452.239 224 455 224 457.761 221.761 460 219 460 216.239 460 214 457.761 214 455Z" fill="#FFFFFF" fill-rule="evenodd"/><path d="M277 455C277 452.239 279.239 450 282 450 284.761 450 287 452.239 287 455 287 457.761 284.761 460 282 460 279.239 460 277 457.761 277 455Z" fill="#FFFFFF" fill-rule="evenodd"/><path d="M305 398C305 395.239 307.239 393 310 393 312.761 393 315 395.239 315 398 315 400.761 312.761 403 310 403 307.239 403 305 400.761 305 398Z" fill="#FFFFFF" fill-rule="evenodd"/><path d="M275 371.5C275 368.462 277.239 366 280 366 282.761 366 285 368.462 285 371.5 285 374.538 282.761 377 280 377 277.239 377 275 374.538 275 371.5Z" fill="#FFFFFF" fill-rule="evenodd"/><path d="M335 422.5C335 419.462 337.462 417 340.5 417 343.538 417 346 419.462 346 422.5 346 425.538 343.538 428 340.5 428 337.462 428 335 425.538 335 422.5Z" fill="#FFFFFF" fill-rule="evenodd"/><path d="M274 506C274 503.239 276.239 501 279 501 281.761 501 284 503.239 284 506 284 508.761 281.761 511 279 511 276.239 511 274 508.761 274 506Z" fill="#FFFFFF" fill-rule="evenodd"/><path d="M335 479.5C335 476.462 337.462 474 340.5 474 343.538 474 346 476.462 346 479.5 346 482.538 343.538 485 340.5 485 337.462 485 335 482.538 335 479.5Z" fill="#FFFFFF" fill-rule="evenodd"/><path d="M367 371.5C367 368.462 369.239 366 372 366 374.761 366 377 368.462 377 371.5 377 374.538 374.761 377 372 377 369.239 377 367 374.538 367 371.5Z" fill="#FFFFFF" fill-rule="evenodd"/><path d="M394 425C394 422.239 396.239 420 399 420 401.761 420 404 422.239 404 425 404 427.761 401.761 430 399 430 396.239 430 394 427.761 394 425Z" fill="#FFFFFF" fill-rule="evenodd"/><path d="M426 373C426 370.239 428.239 368 431 368 433.761 368 436 370.239 436 373 436 375.761 433.761 378 431 378 428.239 378 426 375.761 426 373Z" fill="#FFFFFF" fill-rule="evenodd"/><path d="M395 507C395 504.239 397.239 502 400 502 402.761 502 405 504.239 405 507 405 509.761 402.761 512 400 512 397.239 512 395 509.761 395 507Z" fill="#FFFFFF" fill-rule="evenodd"/><path d="M365 454C365 451.239 367.462 449 370.5 449 373.538 449 376 451.239 376 454 376 456.761 373.538 459 370.5 459 367.462 459 365 456.761 365 454Z" fill="#FFFFFF" fill-rule="evenodd"/><path d="M426 481.5C426 478.462 428.239 476 431 476 433.761 476 436 478.462 436 481.5 436 484.538 433.761 487 431 487 428.239 487 426 484.538 426 481.5Z" fill="#FFFFFF" fill-rule="evenodd"/><g clip-path="url(#clip20)" filter="url(#fx0)" transform="translate(142 274)"><g clip-path="url(#clip21)"><path d="M18.9878-5.72705C18.9878-3.29411 18.2139-1.43026 16.6663-0.135498 15.1186 1.15926 12.8813 1.80664 9.95459 1.80664 7.37712 1.80664 5.35067 1.24658 3.87524 0.126465 2.39982-0.993652 1.43929-2.68587 0.993652-4.9502L5.07666-5.65479C5.66683-2.89665 7.36507-1.51758 10.1714-1.51758 13.2306-1.51758 14.7603-2.83643 14.7603-5.47412 14.7603-6.23291 14.6097-6.85319 14.3086-7.33496 14.0075-7.81673 13.592-8.22021 13.062-8.54541 12.5321-8.87061 11.9088-9.14461 11.1921-9.36743 10.4755-9.59025 9.70768-9.8221 8.88867-10.063 6.91341-10.6291 5.48315-11.2192 4.5979-11.8335 3.71265-12.4478 3.03215-13.2186 2.5564-14.146 2.08065-15.0734 1.84277-16.2297 1.84277-17.6147 1.84277-19.7466 2.55339-21.4087 3.97461-22.6011 5.39583-23.7935 7.37109-24.3896 9.90039-24.3896 12.3092-24.3896 14.1912-23.9109 15.5461-22.9534 16.9011-21.9958 17.8376-20.4933 18.3555-18.4458L14.2183-17.7051C13.6763-20.0296 12.2249-21.1919 9.86426-21.1919 8.64779-21.1919 7.71134-20.8938 7.05493-20.2976 6.39852-19.7014 6.07031-18.8734 6.07031-17.8135 6.07031-17.0788 6.21785-16.4736 6.51294-15.9978 6.80802-15.5221 7.25065-15.1095 7.84082-14.7603 8.43099-14.411 9.56917-13.9774 11.2554-13.4595 13.2306-12.8452 14.6398-12.3062 15.4829-11.8425 16.326-11.3788 16.9945-10.8639 17.4883-10.2979 17.9821-9.73177 18.3555-9.07536 18.6084-8.32861 18.8613-7.58187 18.9878-6.71468 18.9878-5.72705ZM28.8426-1.12012C30.1313-1.12012 31.1491-1.56877 31.8958-2.46606 32.6426-3.36336 33.016-4.5166 33.016-5.92578L33.016-7.60596 31.0467-7.53369C29.2762-7.44938 28.0025-7.13623 27.2257-6.59424 26.4488-6.05225 26.0604-5.20312 26.0604-4.04688 26.0604-2.0957 26.9878-1.12012 28.8426-1.12012ZM37.1532 1.44531 33.1424 1.44531 32.9979-1.48145C32.3836-0.277018 31.6429 0.572103 30.7757 1.06592 29.9085 1.55973 28.8426 1.80664 27.578 1.80664 25.675 1.80664 24.2206 1.31283 23.2149 0.325195 22.2092-0.662435 21.7064-2.03548 21.7064-3.79395 21.7064-5.72103 22.3929-7.19645 23.766-8.22021 25.139-9.24398 27.1624-9.79801 29.8363-9.88232L32.9979-9.99072 32.9979-10.5688C32.9979-12.0021 32.766-13.0409 32.3023-13.6853 31.8386-14.3297 31.0527-14.6519 29.9447-14.6519 28.9691-14.6519 28.2494-14.4682 27.7857-14.1008 27.322-13.7335 27.0059-13.1644 26.8372-12.3936L22.8265-13.0259C23.1878-14.6037 23.9436-15.7358 25.0938-16.4224 26.2441-17.1089 27.8791-17.4521 29.9989-17.4521 32.4679-17.4521 34.2776-16.868 35.4278-15.6997 36.578-14.5314 37.1532-12.7188 37.1532-10.2617ZM54.2503 1.44531 54.2503-8.90674C54.2503-10.8218 53.9823-12.1798 53.4464-12.9807 52.9104-13.7817 52.0583-14.1821 50.89-14.1821 49.6133-14.1821 48.6016-13.6642 47.8548-12.6284 47.1081-11.5926 46.7347-10.1654 46.7347-8.34668L46.7347 1.44531 42.5794 1.44531 42.5794-12.8091C42.5794-14.2423 42.5252-15.6636 42.4168-17.0728L46.3734-17.0728C46.5059-15.2661 46.5721-14.0737 46.5721-13.4956L46.6444-13.4956C47.3429-14.9168 48.1499-15.9316 49.0653-16.5398 49.9806-17.148 51.1429-17.4521 52.5521-17.4521 55.4548-17.4521 57.2855-16.1333 58.0443-13.4956L58.1707-13.4956C58.8211-14.8566 59.613-15.8563 60.5465-16.4946 61.4799-17.133 62.6873-17.4521 64.1688-17.4521 66.1561-17.4521 67.6436-16.8499 68.6312-15.6455 69.6188-14.4411 70.1126-12.5562 70.1126-9.99072L70.1126 1.44531 65.9393 1.44531 65.9393-8.90674C65.9393-10.7856 65.6653-12.1346 65.1173-12.9536 64.5693-13.7726 63.6991-14.1821 62.5067-14.1821 61.242-14.1821 60.2454-13.6733 59.5167-12.6555 58.788-11.6378 58.4237-10.2376 58.4237-8.45508L58.4237 1.44531ZM93.5374-7.91309C93.5374-4.87793 92.8298-2.49919 91.4146-0.776855 89.9994 0.945475 88.0332 1.80664 85.516 1.80664 84.0706 1.80664 82.8843 1.52962 81.9569 0.975586 81.0295 0.421549 80.2887-0.385417 79.7347-1.44531L79.6444-1.44531C79.6685-0.963542 79.6895-0.487793 79.7076-0.0180664 79.7257 0.45166 79.7347 0.927409 79.7347 1.40918L79.7347 8.56348 75.5614 8.56348 75.5614-12.9536C75.5614-14.2062 75.5132-15.5793 75.4168-17.0728L79.4276-17.0728C79.5841-15.8201 79.6624-14.7723 79.6624-13.9292L79.7347-13.9292C80.8909-16.2778 82.9204-17.4521 85.8231-17.4521 88.3162-17.4521 90.2253-16.6301 91.5501-14.9861 92.875-13.342 93.5374-10.9844 93.5374-7.91309ZM89.2015-7.87695C89.2015-12.2129 87.6779-14.3809 84.6307-14.3809 83.0047-14.3809 81.7702-13.8208 80.9271-12.7007 80.084-11.5806 79.6624-9.95459 79.6624-7.82275 79.6624-5.69092 80.0719-4.06494 80.891-2.94482 81.71-1.82471 82.9324-1.26465 84.5584-1.26465 87.6538-1.26465 89.2015-3.46875 89.2015-7.87695ZM98.0794 1.44531 98.0794-24.8232 102.235-24.8232 102.235 1.44531ZM111.092-7.02783C111.153-5.13688 111.571-3.68254 112.348-2.66479 113.125-1.64705 114.188-1.13818 115.537-1.13818 116.452-1.13818 117.268-1.36702 117.985-1.82471 118.701-2.28239 119.349-3.05322 119.927-4.13721L123.197-2.56543C122.486-1.42122 121.776-0.554036 121.065 0.0361328 120.354 0.626302 119.526 1.06893 118.581 1.36401 117.635 1.6591 116.512 1.80664 115.212 1.80664 112.502 1.80664 110.412 0.954508 108.943-0.749756 107.473-2.45402 106.738-4.84782 106.738-7.93115 106.738-11.0386 107.509-13.4023 109.051-15.0222 110.593-16.6422 112.694-17.4521 115.356-17.4521 117.994-17.4521 120.011-16.588 121.408-14.8596 122.806-13.1313 123.504-10.6893 123.504-7.53369L123.504-7.02783ZM115.212-14.5796C113.995-14.5796 113.026-14.146 112.303-13.2788 111.58-12.4116 111.189-11.2132 111.129-9.68359L119.186-9.68359C119.066-11.3216 118.692-12.5471 118.066-13.3601 117.44-14.1731 116.488-14.5796 115.212-14.5796Z" fill="#FFFFFF" transform="translate(26.4255 50)"/></g></g><text fill="#FFFFFF" font-family="DengXian,DengXian_MSFontService,sans-serif" font-weight="700" font-size="37" transform="translate(167.587 323)">Sample</text></g></svg>